<?xml version="1.0" encoding="utf-8"?>
<!-- Generator: Adobe Illustrator 16.0.3, SVG Export Plug-In . SVG Version: 6.00 Build 0)  -->
<!DOCTYPE svg PUBLIC "-//W3C//DTD SVG 1.1//EN" "http://www.w3.org/Graphics/SVG/1.1/DTD/svg11.dtd">
<svg version="1.1" id="Layer_1" xmlns="http://www.w3.org/2000/svg" xmlns:xlink="http://www.w3.org/1999/xlink" x="0px" y="0px"
	 width="600px" height="300px" viewBox="0 0 600 300" enable-background="new 0 0 600 300" xml:space="preserve">
<g>
	<path d="M216.8,189.21l-39.01-72.6v91.82c0,3.36-2.8,6.16-6.16,6.16c-3.36,0-6.16-2.8-6.16-6.16V92.16c0-3.36,2.8-6.16,6.16-6.16
		c2.8,0,4.67,1.68,5.6,3.55l45.16,84.54l45.35-84.54c0.75-1.31,2.24-3.55,5.6-3.55s6.16,2.8,6.16,6.16v116.27
		c0,3.36-2.8,6.16-6.16,6.16s-6.16-2.8-6.16-6.16v-91.82L228,189.21c-1.31,2.43-3.36,3.55-5.6,3.55
		C220.54,192.76,218.11,191.83,216.8,189.21z"/>
	<path d="M316.65,132.85v48.71c0,12.13,3.92,22.58,22.77,22.58c18.85,0,22.77-10.45,22.77-22.58v-48.71c0-3.36,2.8-5.97,6.16-5.97
		c3.17,0,5.79,2.61,5.79,5.97v48.71c0,17.73-5.79,33.97-34.71,33.97c-28.74,0-34.71-16.24-34.71-33.97v-48.71
		c0-3.36,2.61-5.97,5.97-5.97C313.85,126.88,316.65,129.49,316.65,132.85z"/>
	<path d="M406.42,148.53c0,19.6,49.08,12.32,49.08,42.18c0,16.98-14,24.63-31.73,24.63c-15.3,0-27.06-7.28-31.91-13.44
		c-0.93-1.31-1.31-2.24-1.31-3.55c0-2.99,2.43-5.41,5.41-5.41c1.12,0,2.61,0.37,4.11,1.87c5.79,5.79,13.25,9.15,23.7,9.15
		c10.64,0,19.78-3.55,19.78-13.25c0-19.22-49.08-11.57-49.08-42.18c0-15.49,12.69-22.58,28.55-22.58c12.69,0,22.58,4.29,28.37,11.94
		c0.56,0.75,1.31,1.87,1.31,3.55c0,2.99-2.43,5.41-5.41,5.41c-0.93,0-2.43-0.19-3.92-1.68c-5.04-4.85-10.64-7.84-20.34-7.84
		C414.63,137.33,406.42,139.94,406.42,148.53z"/>
	<path d="M508.51,125.76c29.86,0,35.65,23.7,35.65,36.39c0,5.41,0,11.94-7.46,11.94h-54.5c0,18.48,10.64,30.42,28.18,30.42
		c10.83,0,17.17-4.11,22.4-8.03c1.12-0.75,1.87-1.12,3.36-1.12c2.99,0,5.41,2.43,5.41,5.41c0,2.05-0.93,3.17-2.05,4.29
		c-2.8,2.8-12.5,10.45-29.12,10.45c-24.82,0-40.31-13.62-40.31-44.98C470.07,141.81,484.25,125.76,508.51,125.76z M508.51,136.58
		c-16.24,0-25.19,10.45-26.31,27.06h50.2C532.4,150.21,527.73,136.58,508.51,136.58z"/>
</g>
<g>
	<path d="M139.19,172.18c0,23.26-18.85,42.11-42.11,42.11s-42.11-18.85-42.11-42.11c0-23.26,18.85-42.11,42.11-42.11
		S139.19,148.93,139.19,172.18L139.19,172.18z"/>
	<g transform="translate(-168.48866,-348.19101)">
		<path fill="none" stroke="#FFFFFF" stroke-width="2.3839" stroke-linecap="round" d="M296.12,520.38
			c0,16.42-13.68,29.72-30.55,29.72c-16.87,0-30.55-13.31-30.55-29.72c0-16.42,13.68-29.72,30.55-29.72
			C282.44,490.65,296.12,503.96,296.12,520.38z"/>
		<path fill="none" stroke="#FFFFFF" stroke-width="2.3839" d="M240.03,505.02h52.35"/>
		<path fill="none" stroke="#FFFFFF" stroke-width="2.3839" d="M239.41,535.09H293"/>
		<path fill="none" stroke="#FFFFFF" stroke-width="2.3839" d="M235.4,520.29h60.71"/>
		<path fill="none" stroke="#FFFFFF" stroke-width="2.3839" d="M265.03,548.88v-57.33"/>
		<path fill="none" stroke="#FFFFFF" stroke-width="2.3839" d="M265.03,548.88c-18.77-6.47-21.89-46.97,0-57.33"/>
		<path fill="none" stroke="#FFFFFF" stroke-width="2.3839" d="M265.03,548.88c21.73-9.58,21.73-46.97,0-57.33"/>
	</g>
	<path d="M70.69,133.54v-14.87c0-13.19,11.52-23.81,25.83-23.81c14.31,0,25.83,10.62,25.83,23.81v14.87
		c3.73,2.5,7.07,5.52,9.94,8.96v-23.83c0-18.26-15.95-32.96-35.77-32.96c-19.82,0-35.77,14.7-35.77,32.96v23.83
		C63.61,139.06,66.96,136.04,70.69,133.54z"/>
</g>
<g>
</g>
<g>
</g>
<g>
</g>
<g>
</g>
<g>
</g>
<g>
</g>
</svg>
