<?xml version="1.0" encoding="utf-8"?>
<!-- Generator: Adobe Illustrator 16.0.3, SVG Export Plug-In . SVG Version: 6.00 Build 0)  -->
<!DOCTYPE svg PUBLIC "-//W3C//DTD SVG 1.1//EN" "http://www.w3.org/Graphics/SVG/1.1/DTD/svg11.dtd">
<svg version="1.1" id="Layer_1" xmlns="http://www.w3.org/2000/svg" xmlns:xlink="http://www.w3.org/1999/xlink" x="0px" y="0px"
	 width="400px" height="400px" viewBox="0 0 400 400" enable-background="new 0 0 400 400" xml:space="preserve">
<g>
	<path d="M296,258.22c0,52.72-42.74,95.46-95.46,95.46c-52.72,0-95.46-42.73-95.46-95.46c0-52.72,42.74-95.45,95.46-95.45
		C253.26,162.77,296,205.51,296,258.22L296,258.22z"/>
	<g transform="translate(-168.48866,-348.19101)">
		<path fill="none" stroke="#FFFFFF" stroke-width="5.4038" stroke-linecap="round" d="M438.29,606.42
			c0,37.21-31.01,67.38-69.26,67.38c-38.25,0-69.25-30.17-69.25-67.38s31.01-67.38,69.25-67.38
			C407.28,539.04,438.29,569.21,438.29,606.42z"/>
		<path fill="none" stroke="#FFFFFF" stroke-width="5.4038" d="M311.15,571.61h118.66"/>
		<path fill="none" stroke="#FFFFFF" stroke-width="5.4038" d="M309.74,639.76h121.48"/>
		<path fill="none" stroke="#FFFFFF" stroke-width="5.4038" d="M300.66,606.21h137.62"/>
		<path fill="none" stroke="#FFFFFF" stroke-width="5.4038" d="M367.83,671.02V541.06"/>
		<path fill="none" stroke="#FFFFFF" stroke-width="5.4038" d="M367.83,671.02c-42.55-14.66-49.62-106.47,0-129.96"/>
		<path fill="none" stroke="#FFFFFF" stroke-width="5.4038" d="M367.83,671.02c49.26-21.72,49.26-106.47,0-129.96"/>
	</g>
	<path d="M140.73,170.62v-33.71c0-29.9,26.12-53.97,58.56-53.97c32.44,0,58.56,24.07,58.56,53.97v33.71
		c8.45,5.66,16.04,12.51,22.52,20.31v-54.02c0-41.4-36.16-74.72-81.08-74.72c-44.92,0-81.08,33.33-81.08,74.72v54.02
		C124.69,183.13,132.28,176.28,140.73,170.62z"/>
</g>
<g>
</g>
<g>
</g>
<g>
</g>
<g>
</g>
<g>
</g>
<g>
</g>
</svg>
