<?xml version="1.0" encoding="utf-8"?>
<!-- Generator: Adobe Illustrator 16.0.3, SVG Export Plug-In . SVG Version: 6.00 Build 0)  -->
<!DOCTYPE svg PUBLIC "-//W3C//DTD SVG 1.1//EN" "http://www.w3.org/Graphics/SVG/1.1/DTD/svg11.dtd">
<svg version="1.1" id="Layer_1" xmlns="http://www.w3.org/2000/svg" xmlns:xlink="http://www.w3.org/1999/xlink" x="0px" y="0px"
	 width="400px" height="235px" viewBox="0 0 400 235" enable-background="new 0 0 400 235" xml:space="preserve">
<g>
	<g>
		<rect x="13.93" y="10.96" fill="#FFFFFF" width="183.09" height="103.49"/>
		<path fill="#B1B3B6" d="M196.46,11.53v102.35H14.5V11.53H196.46 M197.59,10.39h-1.14H14.5h-1.14v1.14v102.35v1.14h1.14h181.96
			h1.14v-1.14V11.53V10.39L197.59,10.39z"/>
	</g>
	<rect x="14.5" y="11.53" fill="#3A5796" width="181.96" height="19.2"/>
</g>
<g>
	<g>
		<rect x="202.97" y="120.55" fill="#FFFFFF" width="183.09" height="103.49"/>
		<path fill="#B1B3B6" d="M385.5,121.12v102.35H203.54V121.12H385.5 M386.64,119.98h-1.14H203.54h-1.14v1.14v102.35v1.14h1.14H385.5
			h1.14v-1.14V121.12V119.98L386.64,119.98z"/>
	</g>
	<rect x="203.54" y="121.12" fill="#5DA9DD" width="181.96" height="19.2"/>
</g>
<g>
	<g>
		<rect x="13.93" y="120.55" fill="#FFFFFF" width="183.09" height="103.49"/>
		<path fill="#B1B3B6" d="M196.46,121.12v102.35H14.5V121.12H196.46 M197.59,119.98h-1.14H14.5h-1.14v1.14v102.35v1.14h1.14h181.96
			h1.14v-1.14V121.12V119.98L197.59,119.98z"/>
	</g>
	<rect x="14.5" y="121.12" fill="#DE4A31" width="181.96" height="19.2"/>
</g>
<g>
	<g>
		<rect x="202.98" y="10.96" fill="#FFFFFF" width="183.09" height="103.49"/>
		<path fill="#B1B3B6" d="M385.5,11.53v102.35H203.54V11.53H385.5 M386.64,10.39h-1.14H203.54h-1.14v1.14v102.35v1.14h1.14H385.5
			h1.14v-1.14V11.53V10.39L386.64,10.39z"/>
	</g>
	<rect x="203.54" y="11.53" fill="#F1C863" width="181.96" height="19.2"/>
</g>
<g>
	<g>
		<rect x="108.45" y="65.76" fill="#FFFFFF" width="183.09" height="103.49"/>
		<path fill="#B1B3B6" d="M290.98,66.32v102.35H109.02V66.32H290.98 M292.11,65.19h-1.14H109.02h-1.14v1.14v102.35v1.14h1.14h181.96
			h1.14v-1.14V66.32V65.19L292.11,65.19z"/>
	</g>
	<rect x="109.02" y="66.32" fill="#636466" width="181.96" height="19.2"/>
	
		<rect x="155.21" y="106.14" fill="none" stroke="#C2C4C6" stroke-width="0.2843" stroke-miterlimit="10" width="89.59" height="43.39"/>
	
		<line fill="none" stroke="#C2C4C6" stroke-width="0.2843" stroke-miterlimit="10" x1="160.67" y1="113.98" x2="239.33" y2="113.98"/>
	<g>
		<path d="M161,112.3v-3.26h0.43v2.87h1.6v0.38H161z"/>
		<path d="M163.35,111.12c0-0.44,0.12-0.76,0.36-0.97c0.2-0.17,0.45-0.26,0.74-0.26c0.32,0,0.59,0.11,0.79,0.32
			c0.21,0.21,0.31,0.51,0.31,0.88c0,0.3-0.05,0.54-0.14,0.72c-0.09,0.17-0.22,0.31-0.4,0.41c-0.17,0.1-0.36,0.14-0.57,0.14
			c-0.33,0-0.6-0.11-0.8-0.32C163.45,111.82,163.35,111.52,163.35,111.12z M163.76,111.12c0,0.3,0.07,0.53,0.2,0.68
			s0.3,0.23,0.5,0.23c0.2,0,0.36-0.08,0.5-0.23s0.2-0.38,0.2-0.69c0-0.29-0.07-0.51-0.2-0.66c-0.13-0.15-0.3-0.23-0.49-0.23
			c-0.2,0-0.37,0.07-0.5,0.22S163.76,110.82,163.76,111.12z"/>
		<path d="M165.95,112.49l0.39,0.06c0.02,0.12,0.06,0.21,0.14,0.26c0.1,0.07,0.23,0.11,0.41,0.11c0.19,0,0.33-0.04,0.43-0.11
			c0.1-0.07,0.17-0.18,0.2-0.31c0.02-0.08,0.03-0.25,0.03-0.51c-0.17,0.21-0.39,0.31-0.65,0.31c-0.32,0-0.58-0.12-0.75-0.35
			s-0.27-0.51-0.27-0.84c0-0.23,0.04-0.43,0.12-0.62c0.08-0.19,0.2-0.34,0.35-0.44c0.15-0.1,0.34-0.16,0.55-0.16
			c0.28,0,0.51,0.11,0.69,0.34v-0.28h0.37v2.04c0,0.37-0.04,0.63-0.11,0.78s-0.19,0.27-0.36,0.36c-0.16,0.09-0.36,0.13-0.6,0.13
			c-0.28,0-0.51-0.06-0.68-0.19C166.03,112.94,165.95,112.75,165.95,112.49z M166.28,111.08c0,0.31,0.06,0.54,0.18,0.68
			c0.12,0.14,0.28,0.21,0.46,0.21c0.18,0,0.34-0.07,0.46-0.21c0.12-0.14,0.19-0.36,0.19-0.67c0-0.29-0.06-0.51-0.19-0.65
			c-0.13-0.15-0.28-0.22-0.46-0.22c-0.18,0-0.33,0.07-0.45,0.22C166.34,110.58,166.28,110.79,166.28,111.08z"/>
		<path d="M168.56,109.5v-0.46h0.4v0.46H168.56z M168.56,112.3v-2.36h0.4v2.36H168.56z"/>
		<path d="M169.57,112.3v-2.36h0.36v0.34c0.17-0.26,0.42-0.39,0.75-0.39c0.14,0,0.27,0.03,0.39,0.08c0.12,0.05,0.21,0.12,0.27,0.2
			c0.06,0.08,0.1,0.18,0.12,0.3c0.02,0.07,0.02,0.2,0.02,0.39v1.45h-0.4v-1.44c0-0.16-0.02-0.28-0.05-0.37
			c-0.03-0.08-0.09-0.15-0.17-0.19c-0.08-0.05-0.17-0.07-0.28-0.07c-0.17,0-0.32,0.05-0.44,0.16c-0.12,0.11-0.19,0.31-0.19,0.62
			v1.29H169.57z"/>
	</g>
	<g>
		
			<rect x="171.35" y="119.52" fill="none" stroke="#C2C4C6" stroke-width="0.2843" stroke-miterlimit="10" width="57.3" height="5.21"/>
		<g>
			<path d="M194,121.05h0.32v1.41c0,0.25-0.03,0.44-0.08,0.59c-0.06,0.14-0.16,0.26-0.3,0.35c-0.15,0.09-0.34,0.14-0.57,0.14
				c-0.23,0-0.42-0.04-0.56-0.12c-0.15-0.08-0.25-0.19-0.31-0.34c-0.06-0.15-0.09-0.35-0.09-0.61v-1.41h0.32v1.41
				c0,0.21,0.02,0.37,0.06,0.47c0.04,0.1,0.11,0.18,0.2,0.23c0.1,0.05,0.21,0.08,0.35,0.08c0.24,0,0.41-0.05,0.51-0.16
				c0.1-0.11,0.15-0.31,0.15-0.62V121.05z"/>
			<path d="M194.7,122.97l0.3-0.05c0.02,0.12,0.06,0.21,0.14,0.27c0.08,0.06,0.18,0.09,0.32,0.09c0.14,0,0.24-0.03,0.31-0.08
				c0.07-0.06,0.1-0.12,0.1-0.2c0-0.07-0.03-0.12-0.09-0.16c-0.04-0.03-0.14-0.06-0.31-0.1c-0.22-0.06-0.37-0.1-0.46-0.14
				c-0.08-0.04-0.15-0.1-0.19-0.17s-0.07-0.15-0.07-0.24c0-0.08,0.02-0.15,0.05-0.22s0.09-0.12,0.15-0.17
				c0.05-0.03,0.11-0.06,0.19-0.09s0.17-0.04,0.26-0.04c0.14,0,0.26,0.02,0.37,0.06s0.18,0.09,0.23,0.16s0.08,0.16,0.1,0.27
				l-0.29,0.04c-0.01-0.09-0.05-0.16-0.12-0.21c-0.06-0.05-0.15-0.08-0.27-0.08c-0.14,0-0.24,0.02-0.29,0.07
				c-0.06,0.05-0.09,0.1-0.09,0.16c0,0.04,0.01,0.07,0.04,0.11s0.06,0.06,0.11,0.08c0.03,0.01,0.12,0.04,0.27,0.08
				c0.21,0.06,0.36,0.1,0.44,0.14c0.08,0.04,0.15,0.09,0.2,0.16c0.05,0.07,0.07,0.15,0.07,0.26c0,0.1-0.03,0.19-0.09,0.28
				c-0.06,0.09-0.14,0.16-0.25,0.2s-0.23,0.07-0.37,0.07c-0.23,0-0.41-0.05-0.53-0.14C194.81,123.3,194.73,123.16,194.7,122.97z"/>
			<path d="M197.74,122.93l0.31,0.04c-0.05,0.18-0.14,0.32-0.27,0.42c-0.13,0.1-0.3,0.15-0.51,0.15c-0.26,0-0.46-0.08-0.62-0.24
				c-0.15-0.16-0.23-0.38-0.23-0.67c0-0.3,0.08-0.53,0.23-0.69c0.15-0.16,0.35-0.25,0.6-0.25c0.24,0,0.43,0.08,0.58,0.24
				c0.15,0.16,0.23,0.39,0.23,0.68c0,0.02,0,0.04,0,0.08h-1.32c0.01,0.19,0.07,0.34,0.17,0.45c0.1,0.1,0.22,0.16,0.37,0.16
				c0.11,0,0.2-0.03,0.28-0.09C197.63,123.15,197.69,123.05,197.74,122.93z M196.75,122.44h0.99c-0.01-0.15-0.05-0.26-0.11-0.33
				c-0.1-0.12-0.22-0.17-0.37-0.17c-0.14,0-0.25,0.05-0.35,0.14C196.81,122.16,196.76,122.29,196.75,122.44z"/>
			<path d="M198.42,123.5v-1.77h0.27V122c0.07-0.13,0.13-0.21,0.19-0.25s0.12-0.06,0.19-0.06c0.1,0,0.2,0.03,0.31,0.1l-0.1,0.28
				c-0.07-0.04-0.15-0.07-0.22-0.07c-0.07,0-0.12,0.02-0.18,0.06s-0.09,0.09-0.11,0.16c-0.03,0.11-0.05,0.22-0.05,0.35v0.93H198.42z
				"/>
			<path d="M199.56,123.5v-1.77h0.27v0.25c0.13-0.19,0.32-0.29,0.56-0.29c0.11,0,0.2,0.02,0.29,0.06c0.09,0.04,0.16,0.09,0.2,0.15
				c0.04,0.06,0.08,0.14,0.09,0.22c0.01,0.06,0.02,0.15,0.02,0.29v1.09h-0.3v-1.08c0-0.12-0.01-0.21-0.04-0.27s-0.06-0.11-0.12-0.14
				c-0.06-0.04-0.13-0.05-0.21-0.05c-0.13,0-0.24,0.04-0.33,0.12c-0.09,0.08-0.14,0.24-0.14,0.46v0.97H199.56z"/>
			<path d="M202.61,123.28c-0.11,0.09-0.22,0.16-0.32,0.2c-0.1,0.04-0.21,0.06-0.33,0.06c-0.19,0-0.34-0.05-0.45-0.14
				c-0.1-0.1-0.16-0.22-0.16-0.36c0-0.09,0.02-0.17,0.06-0.24c0.04-0.07,0.09-0.13,0.15-0.17c0.06-0.04,0.14-0.08,0.22-0.1
				c0.06-0.02,0.15-0.03,0.27-0.04c0.24-0.03,0.42-0.06,0.54-0.1c0-0.04,0-0.07,0-0.08c0-0.12-0.03-0.21-0.08-0.26
				c-0.08-0.07-0.19-0.1-0.34-0.1c-0.14,0-0.24,0.02-0.31,0.07c-0.07,0.05-0.12,0.14-0.15,0.26l-0.29-0.04
				c0.03-0.13,0.07-0.23,0.13-0.3c0.06-0.08,0.15-0.14,0.27-0.18s0.25-0.06,0.4-0.06c0.15,0,0.27,0.02,0.37,0.05
				c0.09,0.04,0.16,0.08,0.21,0.13c0.04,0.05,0.08,0.12,0.09,0.2c0.01,0.05,0.02,0.14,0.02,0.28v0.4c0,0.28,0.01,0.46,0.02,0.53
				c0.01,0.07,0.04,0.14,0.08,0.21h-0.31C202.64,123.43,202.62,123.36,202.61,123.28z M202.59,122.61
				c-0.11,0.04-0.27,0.08-0.49,0.11c-0.12,0.02-0.21,0.04-0.26,0.06c-0.05,0.02-0.09,0.05-0.12,0.1s-0.04,0.09-0.04,0.14
				c0,0.08,0.03,0.15,0.09,0.2s0.15,0.08,0.27,0.08c0.12,0,0.22-0.03,0.31-0.08c0.09-0.05,0.16-0.12,0.2-0.21
				c0.03-0.07,0.05-0.17,0.05-0.3V122.61z"/>
			<path d="M203.35,123.5v-1.77h0.27v0.25c0.06-0.09,0.13-0.16,0.22-0.21c0.09-0.05,0.2-0.08,0.31-0.08c0.13,0,0.24,0.03,0.32,0.08
				c0.08,0.05,0.14,0.13,0.18,0.23c0.14-0.21,0.32-0.31,0.55-0.31c0.17,0,0.31,0.05,0.41,0.15c0.09,0.1,0.14,0.25,0.14,0.45v1.21
				h-0.3v-1.11c0-0.12-0.01-0.21-0.03-0.26c-0.02-0.05-0.05-0.1-0.11-0.13c-0.05-0.03-0.11-0.05-0.18-0.05
				c-0.12,0-0.23,0.04-0.31,0.12c-0.08,0.08-0.12,0.22-0.12,0.4v1.03h-0.3v-1.15c0-0.13-0.02-0.23-0.07-0.3s-0.13-0.1-0.24-0.1
				c-0.08,0-0.16,0.02-0.23,0.07c-0.07,0.04-0.12,0.11-0.16,0.2c-0.03,0.09-0.05,0.21-0.05,0.37v0.92H203.35z"/>
			<path d="M207.41,122.93l0.31,0.04c-0.05,0.18-0.14,0.32-0.27,0.42s-0.3,0.15-0.51,0.15c-0.26,0-0.46-0.08-0.62-0.24
				c-0.15-0.16-0.23-0.38-0.23-0.67c0-0.3,0.08-0.53,0.23-0.69c0.15-0.16,0.35-0.25,0.6-0.25c0.24,0,0.43,0.08,0.58,0.24
				c0.15,0.16,0.23,0.39,0.23,0.68c0,0.02,0,0.04,0,0.08h-1.32c0.01,0.19,0.07,0.34,0.17,0.45c0.1,0.1,0.22,0.16,0.37,0.16
				c0.11,0,0.2-0.03,0.28-0.09C207.3,123.15,207.36,123.05,207.41,122.93z M206.42,122.44h0.99c-0.01-0.15-0.05-0.26-0.11-0.33
				c-0.1-0.12-0.22-0.17-0.37-0.17c-0.14,0-0.25,0.05-0.35,0.14C206.48,122.16,206.43,122.29,206.42,122.44z"/>
		</g>
	</g>
	<g>
		
			<rect x="171.35" y="127.83" fill="none" stroke="#C2C4C6" stroke-width="0.2843" stroke-miterlimit="10" width="57.3" height="5.21"/>
		<g>
			<path d="M192.77,131.81v-2.44h0.92c0.16,0,0.29,0.01,0.37,0.02c0.12,0.02,0.22,0.06,0.3,0.11s0.15,0.13,0.2,0.24
				c0.05,0.1,0.07,0.21,0.07,0.33c0,0.21-0.07,0.38-0.2,0.53c-0.13,0.14-0.37,0.22-0.72,0.22h-0.63v0.99H192.77z M193.1,130.53h0.63
				c0.21,0,0.36-0.04,0.44-0.12c0.09-0.08,0.13-0.19,0.13-0.33c0-0.1-0.03-0.19-0.08-0.26c-0.05-0.07-0.12-0.12-0.2-0.14
				c-0.05-0.01-0.15-0.02-0.3-0.02h-0.62V130.53z"/>
			<path d="M196.16,131.59c-0.11,0.09-0.22,0.16-0.32,0.2c-0.1,0.04-0.21,0.06-0.33,0.06c-0.19,0-0.34-0.05-0.45-0.14
				s-0.16-0.22-0.16-0.36c0-0.09,0.02-0.17,0.06-0.24c0.04-0.07,0.09-0.13,0.15-0.17c0.06-0.04,0.14-0.08,0.22-0.1
				c0.06-0.02,0.15-0.03,0.27-0.04c0.24-0.03,0.42-0.06,0.53-0.1c0-0.04,0-0.07,0-0.08c0-0.12-0.03-0.21-0.08-0.26
				c-0.08-0.07-0.19-0.1-0.34-0.1c-0.14,0-0.25,0.02-0.31,0.07c-0.07,0.05-0.12,0.14-0.15,0.26l-0.29-0.04
				c0.03-0.13,0.07-0.23,0.13-0.3s0.15-0.14,0.26-0.18c0.12-0.04,0.25-0.06,0.4-0.06c0.15,0,0.27,0.02,0.37,0.05
				c0.09,0.04,0.16,0.08,0.21,0.13c0.04,0.05,0.08,0.12,0.09,0.2c0.01,0.05,0.02,0.14,0.02,0.28v0.4c0,0.28,0.01,0.46,0.02,0.53
				c0.01,0.07,0.04,0.14,0.08,0.21h-0.31C196.19,131.75,196.17,131.68,196.16,131.59z M196.14,130.92
				c-0.11,0.04-0.27,0.08-0.49,0.11c-0.12,0.02-0.21,0.04-0.26,0.06c-0.05,0.02-0.09,0.05-0.12,0.1s-0.04,0.09-0.04,0.14
				c0,0.08,0.03,0.15,0.09,0.2c0.06,0.05,0.15,0.08,0.27,0.08c0.12,0,0.22-0.03,0.31-0.08c0.09-0.05,0.16-0.12,0.2-0.21
				c0.03-0.07,0.05-0.17,0.05-0.3V130.92z"/>
			<path d="M196.79,131.28l0.3-0.05c0.02,0.12,0.06,0.21,0.14,0.27s0.18,0.09,0.32,0.09c0.14,0,0.24-0.03,0.31-0.08
				c0.07-0.06,0.1-0.12,0.1-0.2c0-0.07-0.03-0.12-0.09-0.16c-0.04-0.03-0.14-0.06-0.31-0.1c-0.22-0.05-0.37-0.1-0.46-0.14
				s-0.15-0.1-0.19-0.17c-0.04-0.07-0.07-0.15-0.07-0.24c0-0.08,0.02-0.15,0.05-0.22s0.09-0.12,0.15-0.17
				c0.05-0.04,0.11-0.06,0.19-0.09s0.17-0.04,0.26-0.04c0.14,0,0.26,0.02,0.37,0.06s0.18,0.09,0.23,0.16s0.08,0.16,0.1,0.27
				l-0.29,0.04c-0.01-0.09-0.05-0.16-0.12-0.21s-0.15-0.08-0.27-0.08c-0.14,0-0.24,0.02-0.29,0.07c-0.06,0.04-0.09,0.1-0.09,0.16
				c0,0.04,0.01,0.07,0.04,0.1c0.02,0.03,0.06,0.06,0.11,0.08c0.03,0.01,0.12,0.04,0.27,0.08c0.21,0.06,0.36,0.1,0.44,0.14
				s0.15,0.09,0.2,0.16c0.05,0.07,0.07,0.15,0.07,0.26c0,0.1-0.03,0.19-0.09,0.28s-0.14,0.16-0.25,0.2
				c-0.11,0.05-0.23,0.07-0.37,0.07c-0.23,0-0.41-0.05-0.53-0.14C196.9,131.61,196.82,131.47,196.79,131.28z"/>
			<path d="M198.49,131.28l0.3-0.05c0.02,0.12,0.06,0.21,0.14,0.27s0.18,0.09,0.32,0.09c0.14,0,0.24-0.03,0.31-0.08
				c0.07-0.06,0.1-0.12,0.1-0.2c0-0.07-0.03-0.12-0.09-0.16c-0.04-0.03-0.14-0.06-0.31-0.1c-0.22-0.05-0.37-0.1-0.46-0.14
				s-0.15-0.1-0.19-0.17c-0.04-0.07-0.07-0.15-0.07-0.24c0-0.08,0.02-0.15,0.05-0.22s0.09-0.12,0.15-0.17
				c0.05-0.04,0.11-0.06,0.19-0.09s0.17-0.04,0.26-0.04c0.14,0,0.26,0.02,0.37,0.06s0.18,0.09,0.23,0.16s0.08,0.16,0.1,0.27
				l-0.29,0.04c-0.01-0.09-0.05-0.16-0.12-0.21s-0.15-0.08-0.27-0.08c-0.14,0-0.24,0.02-0.29,0.07c-0.06,0.04-0.09,0.1-0.09,0.16
				c0,0.04,0.01,0.07,0.04,0.1c0.02,0.03,0.06,0.06,0.11,0.08c0.03,0.01,0.12,0.04,0.27,0.08c0.21,0.06,0.36,0.1,0.44,0.14
				s0.15,0.09,0.2,0.16c0.05,0.07,0.07,0.15,0.07,0.26c0,0.1-0.03,0.19-0.09,0.28s-0.14,0.16-0.25,0.2
				c-0.11,0.05-0.23,0.07-0.37,0.07c-0.23,0-0.41-0.05-0.53-0.14C198.6,131.61,198.53,131.47,198.49,131.28z"/>
			<path d="M200.65,131.81l-0.54-1.77h0.31l0.28,1.02l0.1,0.38c0-0.02,0.03-0.14,0.09-0.36l0.28-1.04h0.31l0.26,1.03l0.09,0.34
				l0.1-0.34l0.3-1.02h0.29l-0.55,1.77h-0.31l-0.28-1.06l-0.07-0.3l-0.36,1.36H200.65z"/>
			<path d="M202.67,130.93c0-0.33,0.09-0.57,0.27-0.73c0.15-0.13,0.34-0.2,0.56-0.2c0.24,0,0.44,0.08,0.6,0.24
				c0.16,0.16,0.23,0.38,0.23,0.66c0,0.23-0.03,0.41-0.1,0.54c-0.07,0.13-0.17,0.23-0.3,0.3s-0.27,0.11-0.43,0.11
				c-0.25,0-0.45-0.08-0.6-0.24C202.75,131.45,202.67,131.22,202.67,130.93z M202.98,130.93c0,0.23,0.05,0.4,0.15,0.51
				c0.1,0.11,0.22,0.17,0.37,0.17s0.27-0.06,0.37-0.17s0.15-0.29,0.15-0.52c0-0.22-0.05-0.38-0.15-0.5s-0.22-0.17-0.37-0.17
				c-0.15,0-0.27,0.06-0.37,0.17C203.03,130.53,202.98,130.7,202.98,130.93z"/>
			<path d="M204.68,131.81v-1.77h0.27v0.27c0.07-0.13,0.13-0.21,0.19-0.25c0.06-0.04,0.12-0.06,0.19-0.06c0.1,0,0.2,0.03,0.31,0.1
				l-0.1,0.28c-0.07-0.04-0.15-0.07-0.22-0.07c-0.07,0-0.12,0.02-0.18,0.06c-0.05,0.04-0.09,0.09-0.11,0.16
				c-0.03,0.11-0.05,0.22-0.05,0.35v0.93H204.68z"/>
			<path d="M206.96,131.81v-0.22c-0.11,0.17-0.28,0.26-0.5,0.26c-0.14,0-0.27-0.04-0.39-0.12c-0.12-0.08-0.21-0.19-0.28-0.33
				c-0.06-0.14-0.1-0.3-0.1-0.48c0-0.18,0.03-0.34,0.09-0.48c0.06-0.14,0.15-0.25,0.26-0.33c0.12-0.08,0.25-0.11,0.4-0.11
				c0.11,0,0.2,0.02,0.28,0.07c0.08,0.04,0.15,0.1,0.2,0.18v-0.88h0.3v2.44H206.96z M206.02,130.93c0,0.23,0.05,0.4,0.14,0.51
				c0.1,0.11,0.21,0.17,0.34,0.17s0.24-0.05,0.33-0.16s0.14-0.27,0.14-0.49c0-0.24-0.05-0.42-0.14-0.53s-0.21-0.17-0.34-0.17
				c-0.13,0-0.24,0.05-0.33,0.16S206.02,130.69,206.02,130.93z"/>
		</g>
	</g>
	<g>
		<g>
			<path fill="#636466" d="M188.28,144.11c-0.08,0-0.14-0.06-0.14-0.14v-6.24c0-0.08,0.06-0.14,0.14-0.14h23.44
				c0.08,0,0.14,0.06,0.14,0.14v6.24c0,0.08-0.06,0.14-0.14,0.14H188.28z"/>
			<path d="M211.72,137.73v6.24h-23.44v-6.24H211.72 M211.72,137.44h-23.44c-0.16,0-0.28,0.13-0.28,0.28v6.24
				c0,0.16,0.13,0.28,0.28,0.28h23.44c0.16,0,0.28-0.13,0.28-0.28v-6.24C212,137.57,211.88,137.44,211.72,137.44L211.72,137.44z"/>
		</g>
		<g>
			<path fill="#FFFFFF" d="M195.51,141.98v-2.44h0.32v2.15h1.2v0.29H195.51z"/>
			<path fill="#FFFFFF" d="M197.27,141.1c0-0.33,0.09-0.57,0.27-0.73c0.15-0.13,0.34-0.2,0.56-0.2c0.24,0,0.44,0.08,0.6,0.24
				c0.15,0.16,0.23,0.38,0.23,0.66c0,0.23-0.03,0.41-0.1,0.54c-0.07,0.13-0.17,0.23-0.3,0.3s-0.27,0.11-0.43,0.11
				c-0.25,0-0.45-0.08-0.6-0.24C197.34,141.63,197.27,141.4,197.27,141.1z M197.58,141.1c0,0.23,0.05,0.4,0.15,0.51
				c0.1,0.11,0.22,0.17,0.37,0.17c0.15,0,0.27-0.06,0.37-0.17c0.1-0.11,0.15-0.29,0.15-0.52c0-0.22-0.05-0.38-0.15-0.5
				c-0.1-0.11-0.22-0.17-0.37-0.17c-0.15,0-0.27,0.06-0.37,0.17C197.63,140.71,197.58,140.87,197.58,141.1z"/>
			<path fill="#FFFFFF" d="M199.22,142.13l0.29,0.04c0.01,0.09,0.05,0.16,0.1,0.2c0.07,0.06,0.18,0.08,0.3,0.08
				c0.14,0,0.25-0.03,0.32-0.08c0.08-0.05,0.13-0.13,0.15-0.23c0.02-0.06,0.02-0.19,0.02-0.38c-0.13,0.15-0.29,0.23-0.49,0.23
				c-0.24,0-0.43-0.09-0.56-0.26s-0.2-0.39-0.2-0.63c0-0.17,0.03-0.32,0.09-0.47s0.15-0.25,0.27-0.33c0.12-0.08,0.25-0.12,0.41-0.12
				c0.21,0,0.38,0.08,0.52,0.25v-0.21h0.28v1.53c0,0.28-0.03,0.47-0.08,0.58c-0.06,0.12-0.15,0.21-0.27,0.27
				c-0.12,0.07-0.27,0.1-0.45,0.1c-0.21,0-0.38-0.05-0.51-0.14C199.28,142.46,199.22,142.32,199.22,142.13z M199.47,141.07
				c0,0.23,0.05,0.4,0.14,0.51c0.09,0.11,0.21,0.16,0.35,0.16c0.14,0,0.25-0.05,0.35-0.16c0.09-0.11,0.14-0.27,0.14-0.5
				c0-0.22-0.05-0.38-0.14-0.49s-0.21-0.17-0.35-0.17c-0.13,0-0.25,0.05-0.34,0.16C199.52,140.7,199.47,140.86,199.47,141.07z"/>
			<path fill="#FFFFFF" d="M202.22,141.98v-2.44h0.32v2.44H202.22z"/>
			<path fill="#FFFFFF" d="M203.07,141.98v-1.77h0.27v0.25c0.13-0.19,0.32-0.29,0.56-0.29c0.11,0,0.21,0.02,0.29,0.06
				s0.16,0.09,0.2,0.15c0.04,0.06,0.07,0.14,0.09,0.22c0.01,0.06,0.02,0.15,0.02,0.29v1.09h-0.3v-1.08c0-0.12-0.01-0.21-0.04-0.27
				s-0.06-0.11-0.12-0.14c-0.06-0.04-0.13-0.05-0.21-0.05c-0.13,0-0.24,0.04-0.33,0.12c-0.09,0.08-0.14,0.24-0.14,0.46v0.97H203.07z
				"/>
		</g>
	</g>
	<g>
		<g>
			<path d="M131.54,80.47l-3.45-6.42v8.12c0,0.3-0.25,0.54-0.54,0.54c-0.3,0-0.54-0.25-0.54-0.54V71.9c0-0.3,0.25-0.54,0.54-0.54
				c0.25,0,0.41,0.15,0.5,0.31l3.99,7.47l4.01-7.47c0.07-0.12,0.2-0.31,0.49-0.31s0.54,0.25,0.54,0.54v10.28
				c0,0.3-0.25,0.54-0.54,0.54s-0.54-0.25-0.54-0.54v-8.12l-3.46,6.42c-0.12,0.21-0.3,0.31-0.49,0.31
				C131.87,80.79,131.65,80.71,131.54,80.47z"/>
			<path d="M140.36,75.49v4.31c0,1.07,0.35,2,2.01,2s2.01-0.92,2.01-2v-4.31c0-0.3,0.25-0.53,0.54-0.53c0.28,0,0.51,0.23,0.51,0.53
				v4.31c0,1.57-0.51,3-3.07,3c-2.54,0-3.07-1.44-3.07-3v-4.31c0-0.3,0.23-0.53,0.53-0.53C140.11,74.97,140.36,75.2,140.36,75.49z"
				/>
			<path d="M148.29,76.88c0,1.73,4.34,1.09,4.34,3.73c0,1.5-1.24,2.18-2.8,2.18c-1.35,0-2.39-0.64-2.82-1.19
				c-0.08-0.12-0.12-0.2-0.12-0.31c0-0.26,0.21-0.48,0.48-0.48c0.1,0,0.23,0.03,0.36,0.16c0.51,0.51,1.17,0.81,2.09,0.81
				c0.94,0,1.75-0.31,1.75-1.17c0-1.7-4.34-1.02-4.34-3.73c0-1.37,1.12-2,2.52-2c1.12,0,2,0.38,2.51,1.06
				c0.05,0.07,0.12,0.17,0.12,0.31c0,0.26-0.21,0.48-0.48,0.48c-0.08,0-0.21-0.02-0.35-0.15c-0.45-0.43-0.94-0.69-1.8-0.69
				C149.02,75.89,148.29,76.12,148.29,76.88z"/>
			<path d="M157.31,74.87c2.64,0,3.15,2.1,3.15,3.22c0,0.48,0,1.06-0.66,1.06h-4.82c0,1.63,0.94,2.69,2.49,2.69
				c0.96,0,1.52-0.36,1.98-0.71c0.1-0.07,0.17-0.1,0.3-0.1c0.26,0,0.48,0.21,0.48,0.48c0,0.18-0.08,0.28-0.18,0.38
				c-0.25,0.25-1.1,0.92-2.57,0.92c-2.19,0-3.56-1.2-3.56-3.98C153.91,76.29,155.17,74.87,157.31,74.87z M157.31,75.82
				c-1.44,0-2.23,0.92-2.33,2.39h4.44C159.42,77.03,159.01,75.82,157.31,75.82z"/>
		</g>
		<g>
			<path d="M124.68,78.97c0,2.06-1.67,3.72-3.72,3.72c-2.06,0-3.72-1.67-3.72-3.72s1.67-3.72,3.72-3.72
				C123.01,75.25,124.68,76.92,124.68,78.97L124.68,78.97z"/>
			<g transform="translate(-168.48866,-348.19101)">
				<path fill="none" stroke="#FFFFFF" stroke-width="0.2106" stroke-linecap="round" d="M292.14,427.16c0,1.45-1.21,2.63-2.7,2.63
					s-2.7-1.18-2.7-2.63c0-1.45,1.21-2.63,2.7-2.63S292.14,425.71,292.14,427.16z"/>
				<path fill="none" stroke="#FFFFFF" stroke-width="0.2106" d="M287.19,425.8h4.63"/>
				<path fill="none" stroke="#FFFFFF" stroke-width="0.2106" d="M287.13,428.46h4.74"/>
				<path fill="none" stroke="#FFFFFF" stroke-width="0.2106" d="M286.78,427.15h5.36"/>
				<path fill="none" stroke="#FFFFFF" stroke-width="0.2106" d="M289.4,429.68v-5.07"/>
				<path fill="none" stroke="#FFFFFF" stroke-width="0.2106" d="M289.4,429.68c-1.66-0.57-1.93-4.15,0-5.07"/>
				<path fill="none" stroke="#FFFFFF" stroke-width="0.2106" d="M289.4,429.68c1.92-0.85,1.92-4.15,0-5.07"/>
			</g>
			<path d="M118.62,75.56v-1.31c0-1.17,1.02-2.1,2.28-2.1s2.28,0.94,2.28,2.1v1.31c0.33,0.22,0.63,0.49,0.88,0.79v-2.11
				c0-1.61-1.41-2.91-3.16-2.91s-3.16,1.3-3.16,2.91v2.11C118,76.04,118.29,75.78,118.62,75.56z"/>
		</g>
	</g>
</g>
</svg>
