<?xml version="1.0" encoding="utf-8"?>
<!-- Generator: Adobe Illustrator 16.0.3, SVG Export Plug-In . SVG Version: 6.00 Build 0)  -->
<!DOCTYPE svg PUBLIC "-//W3C//DTD SVG 1.1//EN" "http://www.w3.org/Graphics/SVG/1.1/DTD/svg11.dtd">
<svg version="1.1" id="Layer_1" xmlns="http://www.w3.org/2000/svg" xmlns:xlink="http://www.w3.org/1999/xlink" x="0px" y="0px"
	 width="400px" height="235px" viewBox="0 0 400 235" enable-background="new 0 0 400 235" xml:space="preserve">
<g>
	<g>
		<rect x="13.93" y="10.96" fill="#FFFFFF" width="183.09" height="103.49"/>
		<path fill="#B1B3B6" d="M196.46,11.53v102.35H14.5V11.53H196.46 M197.59,10.39h-1.14H14.5h-1.14v1.14v102.35v1.14h1.14h181.96
			h1.14v-1.14V11.53V10.39L197.59,10.39z"/>
	</g>
	<rect x="14.5" y="11.53" fill="#3A5796" width="181.96" height="19.2"/>
	
		<rect x="60.68" y="51.34" fill="none" stroke="#C2C4C6" stroke-width="0.2843" stroke-miterlimit="10" width="89.59" height="43.39"/>
	<line fill="none" stroke="#C2C4C6" stroke-width="0.2843" stroke-miterlimit="10" x1="66.14" y1="59.18" x2="144.81" y2="59.18"/>
	<g>
		<path d="M66.48,57.5v-3.26h0.43v2.87h1.6v0.38H66.48z"/>
		<path d="M68.82,56.32c0-0.44,0.12-0.76,0.36-0.97c0.2-0.17,0.45-0.26,0.74-0.26c0.32,0,0.59,0.11,0.79,0.32
			c0.21,0.21,0.31,0.51,0.31,0.88c0,0.3-0.05,0.54-0.14,0.72c-0.09,0.17-0.22,0.31-0.4,0.41c-0.17,0.1-0.36,0.14-0.57,0.14
			c-0.33,0-0.6-0.11-0.8-0.32C68.93,57.03,68.82,56.72,68.82,56.32z M69.23,56.32c0,0.3,0.07,0.53,0.2,0.68s0.3,0.23,0.5,0.23
			c0.2,0,0.36-0.08,0.5-0.23s0.2-0.38,0.2-0.69c0-0.29-0.07-0.51-0.2-0.66c-0.13-0.15-0.3-0.23-0.49-0.23c-0.2,0-0.37,0.07-0.5,0.22
			S69.23,56.02,69.23,56.32z"/>
		<path d="M71.43,57.7l0.39,0.06c0.02,0.12,0.06,0.21,0.14,0.26c0.1,0.07,0.23,0.11,0.41,0.11c0.19,0,0.33-0.04,0.43-0.11
			c0.1-0.07,0.17-0.18,0.2-0.31c0.02-0.08,0.03-0.25,0.03-0.51c-0.17,0.21-0.39,0.31-0.65,0.31c-0.32,0-0.58-0.12-0.75-0.35
			s-0.27-0.51-0.27-0.84c0-0.23,0.04-0.43,0.12-0.62c0.08-0.19,0.2-0.34,0.35-0.44c0.15-0.1,0.34-0.16,0.55-0.16
			c0.28,0,0.51,0.11,0.69,0.34v-0.28h0.37v2.04c0,0.37-0.04,0.63-0.11,0.78s-0.19,0.27-0.36,0.36c-0.16,0.09-0.36,0.13-0.6,0.13
			c-0.28,0-0.51-0.06-0.68-0.19C71.51,58.14,71.42,57.95,71.43,57.7z M71.76,56.28c0,0.31,0.06,0.54,0.18,0.68
			c0.12,0.14,0.28,0.21,0.46,0.21c0.18,0,0.34-0.07,0.46-0.21c0.12-0.14,0.19-0.36,0.19-0.67c0-0.29-0.06-0.51-0.19-0.65
			c-0.13-0.15-0.28-0.22-0.46-0.22c-0.18,0-0.33,0.07-0.45,0.22C71.82,55.78,71.76,56,71.76,56.28z"/>
		<path d="M74.04,54.71v-0.46h0.4v0.46H74.04z M74.04,57.5v-2.36h0.4v2.36H74.04z"/>
		<path d="M75.04,57.5v-2.36h0.36v0.34c0.17-0.26,0.42-0.39,0.75-0.39c0.14,0,0.27,0.03,0.39,0.08c0.12,0.05,0.21,0.12,0.27,0.2
			c0.06,0.08,0.1,0.18,0.12,0.3c0.02,0.07,0.02,0.2,0.02,0.39v1.45h-0.4v-1.44c0-0.16-0.02-0.28-0.05-0.37
			c-0.03-0.08-0.09-0.15-0.17-0.19c-0.08-0.05-0.17-0.07-0.28-0.07c-0.17,0-0.32,0.05-0.44,0.16c-0.12,0.11-0.19,0.31-0.19,0.62
			v1.29H75.04z"/>
	</g>
	<g>
		
			<rect x="76.83" y="64.73" fill="none" stroke="#C2C4C6" stroke-width="0.2843" stroke-miterlimit="10" width="57.3" height="5.21"/>
		<g>
			<path d="M99.47,66.26h0.32v1.41c0,0.25-0.03,0.44-0.08,0.58c-0.06,0.14-0.16,0.26-0.3,0.35c-0.15,0.09-0.34,0.14-0.57,0.14
				c-0.23,0-0.42-0.04-0.56-0.12c-0.15-0.08-0.25-0.19-0.31-0.34c-0.06-0.15-0.09-0.35-0.09-0.61v-1.41h0.32v1.41
				c0,0.21,0.02,0.37,0.06,0.47s0.11,0.18,0.2,0.23c0.1,0.05,0.21,0.08,0.35,0.08c0.24,0,0.41-0.05,0.51-0.16
				c0.1-0.11,0.15-0.31,0.15-0.62V66.26z"/>
			<path d="M100.18,68.17l0.3-0.05c0.02,0.12,0.06,0.21,0.14,0.27c0.08,0.06,0.18,0.1,0.32,0.1c0.14,0,0.24-0.03,0.31-0.08
				c0.07-0.06,0.1-0.12,0.1-0.2c0-0.07-0.03-0.12-0.09-0.16c-0.04-0.03-0.14-0.06-0.31-0.1c-0.22-0.06-0.37-0.1-0.46-0.14
				s-0.15-0.1-0.19-0.17s-0.07-0.15-0.07-0.24c0-0.08,0.02-0.15,0.05-0.22c0.04-0.07,0.09-0.12,0.15-0.17
				c0.05-0.03,0.11-0.06,0.19-0.09s0.17-0.04,0.26-0.04c0.14,0,0.26,0.02,0.37,0.06s0.18,0.09,0.23,0.16s0.08,0.16,0.1,0.27
				l-0.29,0.04c-0.01-0.09-0.05-0.16-0.12-0.21c-0.06-0.05-0.15-0.08-0.27-0.08c-0.14,0-0.24,0.02-0.29,0.07
				c-0.06,0.05-0.09,0.1-0.09,0.16c0,0.04,0.01,0.07,0.04,0.1c0.02,0.03,0.06,0.06,0.11,0.08c0.03,0.01,0.12,0.04,0.27,0.08
				c0.21,0.06,0.36,0.1,0.44,0.14s0.15,0.09,0.2,0.16c0.05,0.07,0.07,0.15,0.07,0.26c0,0.1-0.03,0.19-0.09,0.28s-0.14,0.16-0.25,0.2
				c-0.11,0.05-0.23,0.07-0.37,0.07c-0.23,0-0.41-0.05-0.53-0.14C100.29,68.5,100.21,68.36,100.18,68.17z"/>
			<path d="M103.21,68.13l0.31,0.04c-0.05,0.18-0.14,0.32-0.27,0.42c-0.13,0.1-0.3,0.15-0.51,0.15c-0.26,0-0.46-0.08-0.62-0.24
				c-0.15-0.16-0.23-0.38-0.23-0.67c0-0.3,0.08-0.53,0.23-0.69c0.15-0.16,0.35-0.25,0.6-0.25c0.24,0,0.43,0.08,0.58,0.24
				c0.15,0.16,0.23,0.39,0.23,0.68c0,0.02,0,0.04,0,0.08h-1.32c0.01,0.19,0.07,0.34,0.17,0.45c0.1,0.1,0.22,0.15,0.37,0.15
				c0.11,0,0.2-0.03,0.28-0.09C103.11,68.35,103.17,68.26,103.21,68.13z M102.23,67.65h0.99c-0.01-0.15-0.05-0.26-0.11-0.33
				c-0.1-0.12-0.22-0.17-0.37-0.17c-0.14,0-0.25,0.05-0.35,0.14C102.29,67.37,102.24,67.49,102.23,67.65z"/>
			<path d="M103.9,68.7v-1.77h0.27v0.27c0.07-0.13,0.13-0.21,0.19-0.25s0.12-0.06,0.19-0.06c0.1,0,0.2,0.03,0.31,0.1l-0.1,0.28
				c-0.07-0.04-0.15-0.07-0.22-0.07c-0.07,0-0.12,0.02-0.18,0.06c-0.05,0.04-0.09,0.09-0.11,0.16c-0.03,0.11-0.05,0.22-0.05,0.35
				v0.93H103.9z"/>
			<path d="M105.04,68.7v-1.77h0.27v0.25c0.13-0.19,0.32-0.29,0.56-0.29c0.11,0,0.2,0.02,0.29,0.06c0.09,0.04,0.16,0.09,0.2,0.15
				c0.04,0.06,0.08,0.14,0.09,0.22c0.01,0.06,0.02,0.15,0.02,0.29v1.09h-0.3v-1.08c0-0.12-0.01-0.21-0.04-0.27s-0.06-0.11-0.12-0.15
				s-0.13-0.05-0.21-0.05c-0.13,0-0.24,0.04-0.33,0.12c-0.09,0.08-0.14,0.23-0.14,0.46v0.97H105.04z"/>
			<path d="M108.09,68.48c-0.11,0.09-0.22,0.16-0.32,0.2c-0.1,0.04-0.21,0.06-0.33,0.06c-0.19,0-0.34-0.05-0.45-0.14
				c-0.1-0.09-0.16-0.22-0.16-0.36c0-0.09,0.02-0.17,0.06-0.24c0.04-0.07,0.09-0.13,0.15-0.17c0.06-0.04,0.14-0.08,0.22-0.1
				c0.06-0.02,0.15-0.03,0.27-0.04c0.24-0.03,0.42-0.06,0.53-0.1c0-0.04,0-0.07,0-0.08c0-0.12-0.03-0.21-0.08-0.26
				c-0.08-0.07-0.19-0.1-0.34-0.1c-0.14,0-0.25,0.02-0.31,0.07s-0.12,0.14-0.15,0.26l-0.29-0.04c0.03-0.13,0.07-0.23,0.13-0.3
				s0.15-0.14,0.26-0.18c0.12-0.04,0.25-0.06,0.4-0.06c0.15,0,0.27,0.02,0.37,0.05c0.09,0.04,0.16,0.08,0.21,0.13
				c0.04,0.05,0.08,0.12,0.09,0.2c0.01,0.05,0.02,0.14,0.02,0.28v0.4c0,0.28,0.01,0.46,0.02,0.53s0.04,0.14,0.08,0.21h-0.31
				C108.12,68.64,108.1,68.57,108.09,68.48z M108.06,67.81c-0.11,0.04-0.27,0.08-0.49,0.11c-0.12,0.02-0.21,0.04-0.26,0.06
				c-0.05,0.02-0.09,0.05-0.12,0.1s-0.04,0.09-0.04,0.14c0,0.08,0.03,0.15,0.09,0.2s0.15,0.08,0.27,0.08c0.12,0,0.22-0.03,0.31-0.08
				c0.09-0.05,0.16-0.12,0.2-0.21c0.03-0.07,0.05-0.17,0.05-0.3V67.81z"/>
			<path d="M108.83,68.7v-1.77h0.27v0.25c0.06-0.09,0.13-0.16,0.22-0.21c0.09-0.05,0.2-0.08,0.31-0.08c0.13,0,0.24,0.03,0.32,0.08
				c0.08,0.05,0.14,0.13,0.18,0.23c0.14-0.21,0.32-0.31,0.55-0.31c0.18,0,0.31,0.05,0.4,0.15s0.14,0.25,0.14,0.45v1.21h-0.3v-1.11
				c0-0.12-0.01-0.21-0.03-0.26c-0.02-0.05-0.05-0.1-0.11-0.13s-0.11-0.05-0.18-0.05c-0.12,0-0.23,0.04-0.31,0.12
				c-0.08,0.08-0.12,0.22-0.12,0.4v1.03h-0.3v-1.15c0-0.13-0.02-0.23-0.07-0.3c-0.05-0.07-0.13-0.1-0.24-0.1
				c-0.08,0-0.16,0.02-0.23,0.07c-0.07,0.04-0.12,0.11-0.16,0.19s-0.05,0.21-0.05,0.37v0.92H108.83z"/>
			<path d="M112.88,68.13l0.31,0.04c-0.05,0.18-0.14,0.32-0.27,0.42c-0.13,0.1-0.3,0.15-0.51,0.15c-0.26,0-0.46-0.08-0.62-0.24
				c-0.15-0.16-0.23-0.38-0.23-0.67c0-0.3,0.08-0.53,0.23-0.69c0.15-0.16,0.35-0.25,0.6-0.25c0.24,0,0.43,0.08,0.58,0.24
				c0.15,0.16,0.23,0.39,0.23,0.68c0,0.02,0,0.04,0,0.08h-1.32c0.01,0.19,0.07,0.34,0.17,0.45c0.1,0.1,0.22,0.15,0.37,0.15
				c0.11,0,0.2-0.03,0.28-0.09C112.78,68.35,112.84,68.26,112.88,68.13z M111.9,67.65h0.99c-0.01-0.15-0.05-0.26-0.11-0.33
				c-0.1-0.12-0.22-0.17-0.37-0.17c-0.14,0-0.25,0.05-0.35,0.14C111.96,67.37,111.91,67.49,111.9,67.65z"/>
		</g>
	</g>
	<g>
		
			<rect x="76.83" y="73.04" fill="none" stroke="#C2C4C6" stroke-width="0.2843" stroke-miterlimit="10" width="57.3" height="5.21"/>
		<g>
			<path d="M98.25,77.02v-2.44h0.92c0.16,0,0.29,0.01,0.37,0.02c0.12,0.02,0.22,0.06,0.3,0.11s0.15,0.13,0.2,0.24
				s0.07,0.21,0.07,0.33c0,0.21-0.07,0.38-0.2,0.53c-0.13,0.14-0.37,0.22-0.72,0.22h-0.63v0.99H98.25z M98.57,75.74h0.63
				c0.21,0,0.36-0.04,0.44-0.12c0.09-0.08,0.13-0.19,0.13-0.33c0-0.1-0.03-0.19-0.08-0.26c-0.05-0.07-0.12-0.12-0.2-0.14
				c-0.05-0.01-0.15-0.02-0.3-0.02h-0.62V75.74z"/>
			<path d="M101.64,76.8c-0.11,0.09-0.22,0.16-0.32,0.2c-0.1,0.04-0.21,0.06-0.33,0.06c-0.19,0-0.34-0.05-0.45-0.14
				c-0.1-0.09-0.16-0.22-0.16-0.36c0-0.09,0.02-0.17,0.06-0.24c0.04-0.07,0.09-0.13,0.15-0.17c0.06-0.04,0.14-0.08,0.22-0.1
				c0.06-0.02,0.15-0.03,0.27-0.04c0.24-0.03,0.42-0.06,0.53-0.1c0-0.04,0-0.07,0-0.08c0-0.12-0.03-0.21-0.08-0.26
				c-0.08-0.07-0.19-0.1-0.34-0.1c-0.14,0-0.25,0.02-0.31,0.07s-0.12,0.14-0.15,0.26l-0.29-0.04c0.03-0.13,0.07-0.23,0.13-0.3
				s0.15-0.14,0.26-0.18c0.12-0.04,0.25-0.06,0.4-0.06c0.15,0,0.27,0.02,0.37,0.05c0.09,0.04,0.16,0.08,0.21,0.13
				c0.04,0.05,0.08,0.12,0.09,0.2c0.01,0.05,0.02,0.14,0.02,0.28v0.4c0,0.28,0.01,0.46,0.02,0.53s0.04,0.14,0.08,0.21h-0.31
				C101.67,76.95,101.65,76.88,101.64,76.8z M101.62,76.13c-0.11,0.04-0.27,0.08-0.49,0.11c-0.12,0.02-0.21,0.04-0.26,0.06
				c-0.05,0.02-0.09,0.05-0.12,0.1s-0.04,0.09-0.04,0.14c0,0.08,0.03,0.15,0.09,0.2s0.15,0.08,0.27,0.08c0.12,0,0.22-0.03,0.31-0.08
				c0.09-0.05,0.16-0.12,0.2-0.21c0.03-0.07,0.05-0.17,0.05-0.3V76.13z"/>
			<path d="M102.26,76.49l0.3-0.05c0.02,0.12,0.06,0.21,0.14,0.27c0.08,0.06,0.18,0.1,0.32,0.1c0.14,0,0.24-0.03,0.31-0.08
				c0.07-0.06,0.1-0.12,0.1-0.2c0-0.07-0.03-0.12-0.09-0.16c-0.04-0.03-0.14-0.06-0.31-0.1c-0.22-0.06-0.37-0.1-0.46-0.14
				s-0.15-0.1-0.19-0.17s-0.07-0.15-0.07-0.24c0-0.08,0.02-0.15,0.05-0.22c0.04-0.07,0.09-0.12,0.15-0.17
				c0.05-0.03,0.11-0.06,0.19-0.09s0.17-0.04,0.26-0.04c0.14,0,0.26,0.02,0.37,0.06s0.18,0.09,0.23,0.16s0.08,0.16,0.1,0.27
				l-0.29,0.04c-0.01-0.09-0.05-0.16-0.12-0.21c-0.06-0.05-0.15-0.08-0.27-0.08c-0.14,0-0.24,0.02-0.29,0.07
				c-0.06,0.05-0.09,0.1-0.09,0.16c0,0.04,0.01,0.07,0.04,0.1c0.02,0.03,0.06,0.06,0.11,0.08c0.03,0.01,0.12,0.04,0.27,0.08
				c0.21,0.06,0.36,0.1,0.44,0.14s0.15,0.09,0.2,0.16c0.05,0.07,0.07,0.15,0.07,0.26c0,0.1-0.03,0.19-0.09,0.28s-0.14,0.16-0.25,0.2
				c-0.11,0.05-0.23,0.07-0.37,0.07c-0.23,0-0.41-0.05-0.53-0.14C102.38,76.82,102.3,76.68,102.26,76.49z"/>
			<path d="M103.97,76.49l0.3-0.05c0.02,0.12,0.06,0.21,0.14,0.27c0.08,0.06,0.18,0.1,0.32,0.1c0.14,0,0.24-0.03,0.31-0.08
				c0.07-0.06,0.1-0.12,0.1-0.2c0-0.07-0.03-0.12-0.09-0.16c-0.04-0.03-0.14-0.06-0.31-0.1c-0.22-0.06-0.37-0.1-0.46-0.14
				s-0.15-0.1-0.19-0.17s-0.07-0.15-0.07-0.24c0-0.08,0.02-0.15,0.05-0.22c0.04-0.07,0.09-0.12,0.15-0.17
				c0.05-0.03,0.11-0.06,0.19-0.09s0.17-0.04,0.26-0.04c0.14,0,0.26,0.02,0.37,0.06s0.18,0.09,0.23,0.16s0.08,0.16,0.1,0.27
				l-0.29,0.04c-0.01-0.09-0.05-0.16-0.12-0.21c-0.06-0.05-0.15-0.08-0.27-0.08c-0.14,0-0.24,0.02-0.29,0.07
				c-0.06,0.05-0.09,0.1-0.09,0.16c0,0.04,0.01,0.07,0.04,0.1c0.02,0.03,0.06,0.06,0.11,0.08c0.03,0.01,0.12,0.04,0.27,0.08
				c0.21,0.06,0.36,0.1,0.44,0.14s0.15,0.09,0.2,0.16c0.05,0.07,0.07,0.15,0.07,0.26c0,0.1-0.03,0.19-0.09,0.28s-0.14,0.16-0.25,0.2
				c-0.11,0.05-0.23,0.07-0.37,0.07c-0.23,0-0.41-0.05-0.53-0.14C104.08,76.82,104,76.68,103.97,76.49z"/>
			<path d="M106.12,77.02l-0.54-1.77h0.31l0.28,1.02l0.1,0.38c0-0.02,0.03-0.14,0.09-0.36l0.28-1.04h0.31l0.26,1.03l0.09,0.34
				l0.1-0.34l0.3-1.02h0.29l-0.55,1.77h-0.31l-0.28-1.06l-0.07-0.3l-0.36,1.36H106.12z"/>
			<path d="M108.15,76.13c0-0.33,0.09-0.57,0.27-0.73c0.15-0.13,0.34-0.2,0.56-0.2c0.24,0,0.44,0.08,0.6,0.24
				c0.15,0.16,0.23,0.38,0.23,0.66c0,0.23-0.03,0.41-0.1,0.54c-0.07,0.13-0.17,0.23-0.3,0.3s-0.27,0.11-0.43,0.11
				c-0.25,0-0.45-0.08-0.6-0.24S108.15,76.43,108.15,76.13z M108.46,76.13c0,0.23,0.05,0.4,0.15,0.51c0.1,0.11,0.22,0.17,0.37,0.17
				c0.15,0,0.27-0.06,0.37-0.17c0.1-0.11,0.15-0.29,0.15-0.52c0-0.22-0.05-0.38-0.15-0.5c-0.1-0.11-0.22-0.17-0.37-0.17
				c-0.15,0-0.27,0.06-0.37,0.17C108.51,75.74,108.46,75.91,108.46,76.13z"/>
			<path d="M110.15,77.02v-1.77h0.27v0.27c0.07-0.13,0.13-0.21,0.19-0.25s0.12-0.06,0.19-0.06c0.1,0,0.2,0.03,0.31,0.1l-0.1,0.28
				c-0.07-0.04-0.15-0.07-0.22-0.07c-0.07,0-0.12,0.02-0.18,0.06c-0.05,0.04-0.09,0.09-0.11,0.16c-0.03,0.11-0.05,0.22-0.05,0.35
				v0.93H110.15z"/>
			<path d="M112.44,77.02v-0.22c-0.11,0.18-0.28,0.26-0.49,0.26c-0.14,0-0.27-0.04-0.39-0.12c-0.12-0.08-0.21-0.19-0.27-0.33
				c-0.06-0.14-0.1-0.3-0.1-0.48c0-0.18,0.03-0.34,0.09-0.48c0.06-0.14,0.15-0.25,0.26-0.33s0.25-0.11,0.4-0.11
				c0.11,0,0.2,0.02,0.28,0.07s0.15,0.1,0.2,0.18v-0.88h0.3v2.44H112.44z M111.49,76.13c0,0.23,0.05,0.4,0.14,0.51
				c0.1,0.11,0.21,0.17,0.34,0.17c0.13,0,0.24-0.05,0.33-0.16c0.09-0.11,0.14-0.27,0.14-0.49c0-0.24-0.05-0.42-0.14-0.53
				s-0.21-0.17-0.34-0.17c-0.13,0-0.24,0.05-0.33,0.16S111.49,75.9,111.49,76.13z"/>
		</g>
	</g>
	<g>
		<g>
			<rect x="93.62" y="82.79" fill="#3A5796" width="23.72" height="6.52"/>
			<path d="M117.2,82.93v6.24H93.76v-6.24H117.2 M117.48,82.65h-0.28H93.76h-0.28v0.28v6.24v0.29h0.28h23.44h0.28v-0.29v-6.24V82.65
				L117.48,82.65z"/>
		</g>
		<g>
			<path fill="#FFFFFF" d="M100.98,87.19v-2.44h0.32v2.15h1.2v0.29H100.98z"/>
			<path fill="#FFFFFF" d="M102.75,86.31c0-0.33,0.09-0.57,0.27-0.73c0.15-0.13,0.34-0.2,0.56-0.2c0.24,0,0.44,0.08,0.6,0.24
				c0.15,0.16,0.23,0.38,0.23,0.66c0,0.23-0.03,0.41-0.1,0.54c-0.07,0.13-0.17,0.23-0.3,0.3s-0.27,0.11-0.43,0.11
				c-0.25,0-0.45-0.08-0.6-0.24S102.75,86.6,102.75,86.31z M103.05,86.31c0,0.23,0.05,0.4,0.15,0.51c0.1,0.11,0.22,0.17,0.37,0.17
				c0.15,0,0.27-0.06,0.37-0.17c0.1-0.11,0.15-0.29,0.15-0.52c0-0.22-0.05-0.38-0.15-0.5c-0.1-0.11-0.22-0.17-0.37-0.17
				c-0.15,0-0.27,0.06-0.37,0.17C103.1,85.91,103.05,86.08,103.05,86.31z"/>
			<path fill="#FFFFFF" d="M104.7,87.34l0.29,0.04c0.01,0.09,0.05,0.16,0.1,0.2c0.07,0.06,0.18,0.08,0.3,0.08
				c0.14,0,0.25-0.03,0.32-0.08c0.08-0.06,0.13-0.13,0.15-0.23c0.02-0.06,0.02-0.19,0.02-0.38c-0.13,0.15-0.29,0.23-0.49,0.23
				c-0.24,0-0.43-0.09-0.56-0.26s-0.2-0.39-0.2-0.63c0-0.17,0.03-0.32,0.09-0.47s0.15-0.25,0.27-0.33s0.25-0.12,0.41-0.12
				c0.21,0,0.38,0.08,0.52,0.25v-0.21h0.28v1.53c0,0.28-0.03,0.47-0.08,0.59s-0.15,0.21-0.27,0.27c-0.12,0.07-0.27,0.1-0.45,0.1
				c-0.21,0-0.38-0.05-0.51-0.14C104.76,87.67,104.7,87.53,104.7,87.34z M104.95,86.27c0,0.23,0.05,0.4,0.14,0.51
				c0.09,0.11,0.21,0.16,0.35,0.16c0.14,0,0.25-0.05,0.35-0.16s0.14-0.27,0.14-0.5c0-0.22-0.05-0.38-0.14-0.49s-0.21-0.17-0.35-0.17
				c-0.13,0-0.25,0.05-0.34,0.16S104.95,86.06,104.95,86.27z"/>
			<path fill="#FFFFFF" d="M107.69,87.19v-2.44h0.32v2.44H107.69z"/>
			<path fill="#FFFFFF" d="M108.55,87.19v-1.77h0.27v0.25c0.13-0.19,0.32-0.29,0.56-0.29c0.11,0,0.2,0.02,0.29,0.06
				c0.09,0.04,0.16,0.09,0.2,0.15c0.04,0.06,0.08,0.14,0.09,0.22c0.01,0.06,0.02,0.15,0.02,0.29v1.09h-0.3v-1.08
				c0-0.12-0.01-0.21-0.04-0.27s-0.06-0.11-0.12-0.15s-0.13-0.05-0.21-0.05c-0.13,0-0.24,0.04-0.33,0.12
				c-0.09,0.08-0.14,0.23-0.14,0.46v0.97H108.55z"/>
		</g>
	</g>
</g>
<g>
	<g>
		<rect x="202.97" y="120.55" fill="#FFFFFF" width="183.09" height="103.49"/>
		<path fill="#B1B3B6" d="M385.5,121.12v102.35H203.54V121.12H385.5 M386.64,119.98h-1.14H203.54h-1.14v1.14v102.35v1.14h1.14H385.5
			h1.14v-1.14V121.12V119.98L386.64,119.98z"/>
	</g>
	<rect x="203.54" y="121.12" fill="#5DA9DD" width="181.96" height="19.2"/>
	
		<rect x="249.73" y="160.93" fill="none" stroke="#C2C4C6" stroke-width="0.2843" stroke-miterlimit="10" width="89.59" height="43.39"/>
	
		<line fill="none" stroke="#C2C4C6" stroke-width="0.2843" stroke-miterlimit="10" x1="255.19" y1="168.77" x2="333.86" y2="168.77"/>
	<g>
		<path d="M255.52,167.09v-3.26h0.43v2.87h1.6v0.38H255.52z"/>
		<path d="M257.87,165.91c0-0.44,0.12-0.76,0.36-0.97c0.2-0.18,0.45-0.26,0.74-0.26c0.32,0,0.59,0.11,0.8,0.32
			c0.21,0.21,0.31,0.51,0.31,0.88c0,0.3-0.05,0.54-0.14,0.72s-0.22,0.31-0.4,0.4s-0.36,0.14-0.57,0.14c-0.33,0-0.6-0.11-0.8-0.32
			C257.97,166.62,257.87,166.31,257.87,165.91z M258.28,165.91c0,0.3,0.07,0.53,0.2,0.68s0.3,0.23,0.5,0.23s0.36-0.08,0.5-0.23
			c0.13-0.15,0.2-0.38,0.2-0.69c0-0.29-0.07-0.51-0.2-0.66c-0.13-0.15-0.3-0.23-0.49-0.23c-0.2,0-0.37,0.07-0.5,0.22
			S258.28,165.61,258.28,165.91z"/>
		<path d="M260.47,167.29l0.39,0.06c0.02,0.12,0.06,0.21,0.14,0.26c0.1,0.07,0.23,0.11,0.41,0.11c0.19,0,0.33-0.04,0.43-0.11
			c0.1-0.07,0.17-0.18,0.2-0.31c0.02-0.08,0.03-0.25,0.03-0.51c-0.17,0.21-0.39,0.31-0.65,0.31c-0.32,0-0.58-0.12-0.75-0.35
			s-0.27-0.51-0.27-0.84c0-0.22,0.04-0.43,0.12-0.62c0.08-0.19,0.2-0.34,0.35-0.44s0.34-0.15,0.54-0.15c0.28,0,0.51,0.11,0.69,0.34
			v-0.29h0.37v2.04c0,0.37-0.04,0.63-0.11,0.78c-0.07,0.15-0.19,0.27-0.36,0.36c-0.16,0.09-0.36,0.13-0.6,0.13
			c-0.28,0-0.51-0.06-0.68-0.19C260.55,167.73,260.47,167.54,260.47,167.29z M260.8,165.87c0,0.31,0.06,0.54,0.18,0.68
			s0.28,0.21,0.46,0.21c0.18,0,0.34-0.07,0.46-0.21c0.12-0.14,0.19-0.36,0.19-0.67c0-0.29-0.06-0.51-0.19-0.65s-0.28-0.22-0.46-0.22
			c-0.18,0-0.33,0.07-0.45,0.22S260.8,165.59,260.8,165.87z"/>
		<path d="M263.08,164.29v-0.46h0.4v0.46H263.08z M263.08,167.09v-2.36h0.4v2.36H263.08z"/>
		<path d="M264.09,167.09v-2.36h0.36v0.34c0.17-0.26,0.42-0.39,0.75-0.39c0.14,0,0.27,0.03,0.39,0.08s0.21,0.12,0.27,0.2
			c0.06,0.08,0.1,0.18,0.12,0.29c0.01,0.07,0.02,0.2,0.02,0.39v1.45h-0.4v-1.44c0-0.16-0.02-0.29-0.05-0.37s-0.09-0.14-0.17-0.19
			s-0.17-0.07-0.28-0.07c-0.17,0-0.32,0.05-0.44,0.16c-0.12,0.11-0.19,0.31-0.19,0.62v1.29H264.09z"/>
	</g>
	<g>
		
			<rect x="265.87" y="174.31" fill="none" stroke="#C2C4C6" stroke-width="0.2843" stroke-miterlimit="10" width="57.3" height="5.21"/>
		<g>
			<path d="M288.52,175.85h0.32v1.41c0,0.25-0.03,0.44-0.08,0.58s-0.16,0.26-0.3,0.35c-0.14,0.09-0.33,0.14-0.57,0.14
				c-0.23,0-0.42-0.04-0.56-0.12c-0.15-0.08-0.25-0.19-0.31-0.34s-0.09-0.35-0.09-0.61v-1.41h0.32v1.41c0,0.21,0.02,0.37,0.06,0.47
				s0.11,0.18,0.2,0.23c0.1,0.05,0.21,0.08,0.35,0.08c0.24,0,0.41-0.05,0.51-0.16c0.1-0.11,0.15-0.32,0.15-0.62V175.85z"/>
			<path d="M289.22,177.76l0.3-0.05c0.02,0.12,0.06,0.21,0.14,0.27c0.08,0.06,0.18,0.09,0.32,0.09c0.14,0,0.24-0.03,0.31-0.08
				c0.07-0.06,0.1-0.12,0.1-0.2c0-0.07-0.03-0.12-0.09-0.16c-0.04-0.03-0.14-0.06-0.31-0.1c-0.22-0.05-0.37-0.1-0.46-0.14
				c-0.08-0.04-0.15-0.1-0.19-0.17c-0.04-0.07-0.07-0.15-0.07-0.24c0-0.08,0.02-0.15,0.05-0.22s0.08-0.12,0.15-0.17
				c0.05-0.04,0.11-0.06,0.19-0.09c0.08-0.02,0.17-0.04,0.26-0.04c0.14,0,0.26,0.02,0.37,0.06c0.11,0.04,0.18,0.09,0.23,0.16
				s0.08,0.16,0.1,0.27l-0.29,0.04c-0.01-0.09-0.05-0.16-0.12-0.21c-0.06-0.05-0.15-0.08-0.27-0.08c-0.14,0-0.24,0.02-0.29,0.07
				s-0.09,0.1-0.09,0.16c0,0.04,0.01,0.07,0.04,0.1c0.02,0.03,0.06,0.06,0.12,0.08c0.03,0.01,0.12,0.04,0.26,0.08
				c0.21,0.06,0.36,0.1,0.44,0.14c0.08,0.04,0.15,0.09,0.2,0.16c0.05,0.07,0.07,0.15,0.07,0.26c0,0.1-0.03,0.19-0.09,0.28
				c-0.06,0.09-0.14,0.16-0.25,0.21c-0.11,0.05-0.23,0.07-0.37,0.07c-0.23,0-0.41-0.05-0.53-0.14
				C289.33,178.09,289.25,177.95,289.22,177.76z"/>
			<path d="M292.26,177.72l0.31,0.04c-0.05,0.18-0.14,0.32-0.27,0.42c-0.13,0.1-0.3,0.15-0.51,0.15c-0.26,0-0.46-0.08-0.62-0.24
				s-0.23-0.38-0.23-0.67c0-0.3,0.08-0.53,0.23-0.69s0.35-0.25,0.6-0.25c0.24,0,0.43,0.08,0.58,0.24c0.15,0.16,0.22,0.39,0.22,0.68
				c0,0.02,0,0.04,0,0.08h-1.32c0.01,0.19,0.07,0.34,0.17,0.45s0.22,0.15,0.37,0.15c0.11,0,0.2-0.03,0.28-0.09
				S292.21,177.85,292.26,177.72z M291.27,177.24h0.99c-0.01-0.15-0.05-0.26-0.11-0.33c-0.1-0.12-0.22-0.17-0.37-0.17
				c-0.14,0-0.25,0.05-0.35,0.14C291.34,176.96,291.28,177.08,291.27,177.24z"/>
			<path d="M292.94,178.29v-1.77h0.27v0.27c0.07-0.13,0.13-0.21,0.19-0.25c0.06-0.04,0.12-0.06,0.19-0.06c0.1,0,0.2,0.03,0.31,0.1
				l-0.1,0.28c-0.07-0.04-0.15-0.06-0.22-0.06c-0.07,0-0.12,0.02-0.18,0.06c-0.05,0.04-0.09,0.09-0.11,0.16
				c-0.03,0.11-0.05,0.22-0.05,0.35v0.93H292.94z"/>
			<path d="M294.08,178.29v-1.77h0.27v0.25c0.13-0.19,0.32-0.29,0.56-0.29c0.11,0,0.21,0.02,0.29,0.06c0.09,0.04,0.16,0.09,0.2,0.15
				c0.04,0.06,0.08,0.14,0.09,0.22c0.01,0.05,0.02,0.15,0.02,0.29v1.09h-0.3v-1.08c0-0.12-0.01-0.21-0.03-0.27
				c-0.02-0.06-0.07-0.11-0.13-0.14c-0.06-0.04-0.13-0.05-0.21-0.05c-0.13,0-0.24,0.04-0.33,0.12s-0.14,0.24-0.14,0.46v0.97H294.08z
				"/>
			<path d="M297.13,178.07c-0.11,0.09-0.22,0.16-0.32,0.2s-0.21,0.06-0.33,0.06c-0.19,0-0.34-0.05-0.45-0.14
				c-0.1-0.09-0.16-0.22-0.16-0.36c0-0.09,0.02-0.17,0.06-0.24c0.04-0.07,0.09-0.13,0.15-0.17c0.06-0.04,0.14-0.08,0.22-0.1
				c0.06-0.02,0.15-0.03,0.27-0.04c0.24-0.03,0.42-0.06,0.54-0.1c0-0.04,0-0.07,0-0.08c0-0.12-0.03-0.21-0.08-0.26
				c-0.08-0.07-0.19-0.1-0.34-0.1c-0.14,0-0.25,0.02-0.31,0.07c-0.07,0.05-0.12,0.14-0.15,0.26l-0.29-0.04
				c0.03-0.13,0.07-0.23,0.13-0.3c0.06-0.08,0.15-0.14,0.26-0.18c0.12-0.04,0.25-0.06,0.4-0.06c0.15,0,0.27,0.02,0.37,0.05
				c0.09,0.04,0.16,0.08,0.21,0.13c0.04,0.05,0.08,0.12,0.09,0.2c0.01,0.05,0.01,0.14,0.01,0.28v0.4c0,0.28,0.01,0.46,0.02,0.53
				c0.01,0.07,0.04,0.14,0.08,0.21h-0.31C297.16,178.23,297.14,178.16,297.13,178.07z M297.11,177.4c-0.11,0.04-0.27,0.08-0.49,0.11
				c-0.12,0.02-0.21,0.04-0.26,0.06c-0.05,0.02-0.09,0.05-0.12,0.1c-0.03,0.04-0.04,0.09-0.04,0.14c0,0.08,0.03,0.15,0.09,0.2
				c0.06,0.05,0.15,0.08,0.27,0.08c0.12,0,0.22-0.02,0.31-0.08s0.16-0.12,0.2-0.21c0.03-0.07,0.05-0.17,0.05-0.3V177.4z"/>
			<path d="M297.88,178.29v-1.77h0.27v0.25c0.06-0.09,0.13-0.16,0.22-0.21c0.09-0.05,0.2-0.08,0.31-0.08c0.13,0,0.24,0.03,0.32,0.08
				s0.14,0.13,0.18,0.23c0.14-0.21,0.32-0.31,0.55-0.31c0.18,0,0.31,0.05,0.41,0.15c0.09,0.1,0.14,0.25,0.14,0.45v1.21h-0.3v-1.11
				c0-0.12-0.01-0.21-0.03-0.26s-0.05-0.1-0.11-0.13c-0.05-0.03-0.11-0.05-0.18-0.05c-0.12,0-0.23,0.04-0.31,0.12
				c-0.08,0.08-0.12,0.21-0.12,0.4v1.03h-0.3v-1.15c0-0.13-0.02-0.23-0.07-0.3s-0.13-0.1-0.24-0.1c-0.08,0-0.16,0.02-0.23,0.07
				c-0.07,0.04-0.12,0.11-0.16,0.19c-0.03,0.09-0.05,0.21-0.05,0.37v0.92H297.88z"/>
			<path d="M301.93,177.72l0.31,0.04c-0.05,0.18-0.14,0.32-0.27,0.42c-0.13,0.1-0.3,0.15-0.51,0.15c-0.26,0-0.46-0.08-0.62-0.24
				s-0.23-0.38-0.23-0.67c0-0.3,0.08-0.53,0.23-0.69s0.35-0.25,0.6-0.25c0.24,0,0.43,0.08,0.58,0.24c0.15,0.16,0.22,0.39,0.22,0.68
				c0,0.02,0,0.04,0,0.08h-1.32c0.01,0.19,0.07,0.34,0.17,0.45s0.22,0.15,0.37,0.15c0.11,0,0.2-0.03,0.28-0.09
				S301.88,177.85,301.93,177.72z M300.94,177.24h0.99c-0.01-0.15-0.05-0.26-0.11-0.33c-0.1-0.12-0.22-0.17-0.37-0.17
				c-0.14,0-0.25,0.05-0.35,0.14C301.01,176.96,300.95,177.08,300.94,177.24z"/>
		</g>
	</g>
	<g>
		
			<rect x="265.87" y="182.63" fill="none" stroke="#C2C4C6" stroke-width="0.2843" stroke-miterlimit="10" width="57.3" height="5.21"/>
		<g>
			<path d="M287.29,186.61v-2.44h0.92c0.16,0,0.29,0.01,0.37,0.02c0.12,0.02,0.22,0.06,0.3,0.12c0.08,0.05,0.15,0.13,0.2,0.23
				c0.05,0.1,0.07,0.21,0.07,0.33c0,0.21-0.07,0.38-0.2,0.53c-0.13,0.14-0.37,0.21-0.72,0.21h-0.63v0.99H287.29z M287.62,185.32
				h0.63c0.21,0,0.36-0.04,0.44-0.12c0.09-0.08,0.13-0.19,0.13-0.33c0-0.1-0.03-0.19-0.08-0.26s-0.12-0.12-0.2-0.14
				c-0.05-0.01-0.16-0.02-0.3-0.02h-0.63V185.32z"/>
			<path d="M290.69,186.39c-0.11,0.09-0.22,0.16-0.32,0.2s-0.21,0.06-0.33,0.06c-0.19,0-0.34-0.05-0.45-0.14
				c-0.1-0.09-0.16-0.21-0.16-0.36c0-0.09,0.02-0.17,0.06-0.24c0.04-0.07,0.09-0.13,0.15-0.17c0.06-0.04,0.14-0.08,0.22-0.1
				c0.06-0.02,0.15-0.03,0.27-0.04c0.24-0.03,0.42-0.06,0.54-0.1c0-0.04,0-0.07,0-0.08c0-0.12-0.03-0.21-0.08-0.26
				c-0.08-0.07-0.19-0.1-0.34-0.1c-0.14,0-0.25,0.02-0.31,0.07c-0.07,0.05-0.12,0.14-0.15,0.26l-0.29-0.04
				c0.03-0.13,0.07-0.23,0.13-0.3c0.06-0.08,0.15-0.14,0.26-0.18c0.12-0.04,0.25-0.06,0.4-0.06c0.15,0,0.27,0.02,0.37,0.05
				c0.09,0.04,0.16,0.08,0.21,0.13c0.04,0.05,0.08,0.12,0.09,0.21c0.01,0.05,0.01,0.14,0.01,0.28v0.4c0,0.28,0.01,0.46,0.02,0.53
				s0.04,0.14,0.08,0.21h-0.31C290.71,186.54,290.7,186.47,290.69,186.39z M290.66,185.72c-0.11,0.04-0.27,0.08-0.49,0.11
				c-0.12,0.02-0.21,0.04-0.26,0.06c-0.05,0.02-0.09,0.05-0.12,0.1c-0.03,0.04-0.04,0.09-0.04,0.14c0,0.08,0.03,0.15,0.09,0.2
				s0.15,0.08,0.27,0.08c0.12,0,0.22-0.03,0.31-0.08s0.16-0.12,0.2-0.21c0.03-0.07,0.05-0.17,0.05-0.3V185.72z"/>
			<path d="M291.31,186.08l0.3-0.05c0.02,0.12,0.06,0.21,0.14,0.27c0.08,0.06,0.18,0.1,0.32,0.1c0.14,0,0.24-0.03,0.31-0.08
				s0.1-0.12,0.1-0.2c0-0.07-0.03-0.12-0.09-0.16c-0.04-0.03-0.14-0.06-0.31-0.1c-0.22-0.05-0.37-0.1-0.46-0.14s-0.15-0.1-0.19-0.17
				s-0.07-0.15-0.07-0.24c0-0.08,0.02-0.15,0.05-0.22c0.04-0.07,0.08-0.12,0.15-0.17c0.05-0.04,0.11-0.06,0.19-0.09
				c0.08-0.02,0.17-0.04,0.26-0.04c0.14,0,0.26,0.02,0.37,0.06c0.11,0.04,0.18,0.09,0.23,0.16s0.08,0.16,0.1,0.28l-0.29,0.04
				c-0.01-0.09-0.05-0.16-0.12-0.21s-0.15-0.08-0.27-0.08c-0.14,0-0.24,0.02-0.29,0.07c-0.06,0.04-0.09,0.1-0.09,0.16
				c0,0.04,0.01,0.07,0.04,0.1c0.02,0.03,0.06,0.06,0.12,0.08c0.03,0.01,0.12,0.04,0.26,0.08c0.21,0.06,0.36,0.1,0.44,0.14
				c0.08,0.04,0.15,0.09,0.2,0.16c0.05,0.07,0.07,0.15,0.07,0.26c0,0.1-0.03,0.19-0.09,0.28c-0.06,0.09-0.14,0.16-0.25,0.21
				s-0.23,0.07-0.37,0.07c-0.23,0-0.41-0.05-0.53-0.14C291.42,186.41,291.34,186.26,291.31,186.08z"/>
			<path d="M293.01,186.08l0.3-0.05c0.02,0.12,0.06,0.21,0.14,0.27c0.08,0.06,0.18,0.1,0.32,0.1c0.14,0,0.24-0.03,0.31-0.08
				s0.1-0.12,0.1-0.2c0-0.07-0.03-0.12-0.09-0.16c-0.04-0.03-0.14-0.06-0.31-0.1c-0.22-0.05-0.37-0.1-0.46-0.14s-0.15-0.1-0.19-0.17
				s-0.07-0.15-0.07-0.24c0-0.08,0.02-0.15,0.05-0.22c0.04-0.07,0.08-0.12,0.15-0.17c0.05-0.04,0.11-0.06,0.19-0.09
				c0.08-0.02,0.17-0.04,0.26-0.04c0.14,0,0.26,0.02,0.37,0.06c0.11,0.04,0.18,0.09,0.23,0.16s0.08,0.16,0.1,0.28l-0.29,0.04
				c-0.01-0.09-0.05-0.16-0.12-0.21s-0.15-0.08-0.27-0.08c-0.14,0-0.24,0.02-0.29,0.07c-0.06,0.04-0.09,0.1-0.09,0.16
				c0,0.04,0.01,0.07,0.04,0.1c0.02,0.03,0.06,0.06,0.12,0.08c0.03,0.01,0.12,0.04,0.26,0.08c0.21,0.06,0.36,0.1,0.44,0.14
				c0.08,0.04,0.15,0.09,0.2,0.16c0.05,0.07,0.07,0.15,0.07,0.26c0,0.1-0.03,0.19-0.09,0.28c-0.06,0.09-0.14,0.16-0.25,0.21
				s-0.23,0.07-0.37,0.07c-0.23,0-0.41-0.05-0.53-0.14C293.13,186.41,293.05,186.26,293.01,186.08z"/>
			<path d="M295.17,186.61l-0.54-1.77h0.31l0.28,1.02l0.1,0.38c0-0.02,0.04-0.14,0.09-0.37l0.28-1.04H296l0.26,1.03l0.09,0.34
				l0.1-0.34l0.3-1.02h0.29l-0.55,1.77h-0.31l-0.28-1.06l-0.07-0.3l-0.36,1.36H295.17z"/>
			<path d="M297.19,185.72c0-0.33,0.09-0.57,0.27-0.73c0.15-0.13,0.34-0.2,0.56-0.2c0.24,0,0.44,0.08,0.6,0.24
				c0.15,0.16,0.23,0.38,0.23,0.66c0,0.23-0.03,0.41-0.1,0.54s-0.17,0.23-0.3,0.3s-0.27,0.11-0.43,0.11c-0.25,0-0.45-0.08-0.6-0.24
				C297.27,186.25,297.19,186.02,297.19,185.72z M297.5,185.72c0,0.23,0.05,0.4,0.15,0.51c0.1,0.11,0.22,0.17,0.37,0.17
				c0.15,0,0.27-0.06,0.37-0.17s0.15-0.29,0.15-0.52c0-0.22-0.05-0.38-0.15-0.5s-0.22-0.17-0.37-0.17c-0.15,0-0.27,0.05-0.37,0.17
				C297.55,185.32,297.5,185.49,297.5,185.72z"/>
			<path d="M299.2,186.61v-1.77h0.27v0.27c0.07-0.13,0.13-0.21,0.19-0.25c0.06-0.04,0.12-0.06,0.19-0.06c0.1,0,0.2,0.03,0.31,0.1
				l-0.1,0.28c-0.07-0.04-0.15-0.06-0.22-0.06c-0.07,0-0.12,0.02-0.18,0.06c-0.05,0.04-0.09,0.1-0.11,0.16
				c-0.03,0.11-0.05,0.22-0.05,0.35v0.93H299.2z"/>
			<path d="M301.49,186.61v-0.22c-0.11,0.18-0.28,0.26-0.5,0.26c-0.14,0-0.27-0.04-0.39-0.12c-0.12-0.08-0.21-0.19-0.28-0.33
				c-0.06-0.14-0.1-0.3-0.1-0.48c0-0.18,0.03-0.34,0.09-0.48c0.06-0.14,0.15-0.25,0.26-0.33c0.12-0.08,0.25-0.12,0.39-0.12
				c0.11,0,0.2,0.02,0.29,0.07s0.15,0.1,0.2,0.18v-0.88h0.3v2.44H301.49z M300.54,185.72c0,0.23,0.05,0.39,0.14,0.51
				c0.09,0.11,0.21,0.17,0.34,0.17c0.13,0,0.24-0.05,0.33-0.16s0.14-0.27,0.14-0.49c0-0.24-0.05-0.42-0.14-0.53
				c-0.09-0.11-0.21-0.17-0.34-0.17c-0.13,0-0.24,0.05-0.33,0.16C300.58,185.32,300.54,185.49,300.54,185.72z"/>
		</g>
	</g>
	<g>
		<g>
			<path fill="#5DA9DD" d="M282.8,198.9c-0.08,0-0.14-0.06-0.14-0.14v-6.24c0-0.08,0.06-0.14,0.14-0.14h23.44
				c0.08,0,0.14,0.06,0.14,0.14v6.24c0,0.08-0.06,0.14-0.14,0.14H282.8z"/>
			<g>
				<path fill="#3A88C3" d="M306.24,192.52v6.24H282.8v-6.24H306.24 M306.24,192.24H282.8c-0.16,0-0.28,0.13-0.28,0.28v6.24
					c0,0.16,0.13,0.29,0.28,0.29h23.44c0.16,0,0.28-0.13,0.28-0.29v-6.24C306.52,192.37,306.4,192.24,306.24,192.24L306.24,192.24z"
					/>
			</g>
		</g>
		<g>
			<path fill="#FFFFFF" d="M290.03,196.78v-2.44h0.32v2.15h1.2v0.29H290.03z"/>
			<path fill="#FFFFFF" d="M291.79,195.89c0-0.33,0.09-0.57,0.27-0.73c0.15-0.13,0.34-0.2,0.56-0.2c0.24,0,0.44,0.08,0.6,0.24
				s0.23,0.38,0.23,0.66c0,0.23-0.03,0.41-0.1,0.54c-0.07,0.13-0.17,0.23-0.3,0.3s-0.27,0.11-0.43,0.11c-0.25,0-0.45-0.08-0.6-0.24
				C291.87,196.42,291.79,196.19,291.79,195.89z M292.1,195.89c0,0.23,0.05,0.4,0.15,0.51c0.1,0.11,0.22,0.17,0.37,0.17
				c0.15,0,0.27-0.06,0.37-0.17s0.15-0.29,0.15-0.52c0-0.22-0.05-0.38-0.15-0.5c-0.1-0.11-0.22-0.17-0.37-0.17
				c-0.15,0-0.27,0.06-0.37,0.17C292.15,195.5,292.1,195.67,292.1,195.89z"/>
			<path fill="#FFFFFF" d="M293.74,196.93l0.29,0.04c0.01,0.09,0.05,0.16,0.1,0.2c0.07,0.06,0.18,0.08,0.3,0.08
				c0.14,0,0.25-0.03,0.32-0.08s0.13-0.13,0.15-0.23c0.02-0.06,0.02-0.19,0.02-0.38c-0.13,0.15-0.29,0.23-0.49,0.23
				c-0.24,0-0.43-0.09-0.57-0.26c-0.13-0.17-0.2-0.39-0.2-0.63c0-0.17,0.03-0.32,0.09-0.47c0.06-0.14,0.15-0.25,0.27-0.33
				c0.12-0.08,0.25-0.12,0.41-0.12c0.21,0,0.38,0.08,0.52,0.25v-0.21h0.28v1.53c0,0.28-0.03,0.47-0.08,0.59
				c-0.06,0.12-0.14,0.21-0.27,0.27c-0.12,0.07-0.27,0.1-0.45,0.1c-0.21,0-0.38-0.05-0.51-0.14
				C293.8,197.26,293.74,197.12,293.74,196.93z M293.99,195.86c0,0.23,0.05,0.4,0.14,0.51c0.09,0.11,0.21,0.16,0.35,0.16
				c0.14,0,0.25-0.05,0.35-0.16c0.09-0.11,0.14-0.27,0.14-0.5c0-0.22-0.05-0.38-0.14-0.49c-0.1-0.11-0.21-0.17-0.35-0.17
				c-0.13,0-0.25,0.05-0.34,0.16C294.04,195.49,293.99,195.65,293.99,195.86z"/>
			<path fill="#FFFFFF" d="M296.74,196.78v-2.44h0.32v2.44H296.74z"/>
			<path fill="#FFFFFF" d="M297.59,196.78v-1.77h0.27v0.25c0.13-0.19,0.32-0.29,0.56-0.29c0.11,0,0.21,0.02,0.29,0.06
				c0.09,0.04,0.16,0.09,0.2,0.15c0.04,0.06,0.08,0.14,0.09,0.22c0.01,0.05,0.02,0.15,0.02,0.29v1.09h-0.3v-1.08
				c0-0.12-0.01-0.21-0.03-0.27c-0.02-0.06-0.07-0.11-0.13-0.14c-0.06-0.04-0.13-0.05-0.21-0.05c-0.13,0-0.24,0.04-0.33,0.12
				s-0.14,0.24-0.14,0.46v0.97H297.59z"/>
		</g>
	</g>
</g>
<g>
	<g>
		<rect x="13.93" y="120.55" fill="#FFFFFF" width="183.09" height="103.49"/>
		<path fill="#B1B3B6" d="M196.46,121.12v102.35H14.5V121.12H196.46 M197.59,119.98h-1.14H14.5h-1.14v1.14v102.35v1.14h1.14h181.96
			h1.14v-1.14V121.12V119.98L197.59,119.98z"/>
	</g>
	<rect x="14.5" y="121.12" fill="#DE4A31" width="181.96" height="19.2"/>
	
		<rect x="60.68" y="160.93" fill="none" stroke="#C2C4C6" stroke-width="0.2843" stroke-miterlimit="10" width="89.59" height="43.39"/>
	
		<line fill="none" stroke="#C2C4C6" stroke-width="0.2843" stroke-miterlimit="10" x1="66.14" y1="168.77" x2="144.81" y2="168.77"/>
	<g>
		<path d="M66.48,167.09v-3.26h0.43v2.87h1.6v0.38H66.48z"/>
		<path d="M68.82,165.91c0-0.44,0.12-0.76,0.36-0.97c0.2-0.17,0.45-0.26,0.74-0.26c0.32,0,0.59,0.11,0.79,0.32
			c0.21,0.21,0.31,0.51,0.31,0.88c0,0.3-0.05,0.54-0.14,0.72c-0.09,0.17-0.22,0.31-0.4,0.41c-0.17,0.1-0.36,0.14-0.57,0.14
			c-0.33,0-0.6-0.11-0.8-0.32S68.82,166.31,68.82,165.91z M69.24,165.91c0,0.3,0.07,0.53,0.2,0.68s0.3,0.22,0.5,0.22
			c0.2,0,0.36-0.07,0.5-0.23c0.13-0.15,0.2-0.38,0.2-0.69c0-0.29-0.07-0.51-0.2-0.66c-0.13-0.15-0.3-0.22-0.49-0.22
			c-0.2,0-0.37,0.07-0.5,0.22C69.3,165.38,69.24,165.61,69.24,165.91z"/>
		<path d="M71.43,167.29l0.39,0.06c0.02,0.12,0.06,0.21,0.14,0.26c0.1,0.07,0.23,0.11,0.41,0.11c0.19,0,0.33-0.04,0.43-0.11
			s0.17-0.18,0.2-0.31c0.02-0.08,0.03-0.25,0.03-0.51c-0.17,0.21-0.39,0.31-0.65,0.31c-0.32,0-0.58-0.12-0.75-0.35
			c-0.18-0.23-0.27-0.52-0.27-0.84c0-0.23,0.04-0.43,0.12-0.62c0.08-0.19,0.2-0.34,0.35-0.44s0.34-0.16,0.55-0.16
			c0.28,0,0.51,0.11,0.69,0.34v-0.28h0.37v2.04c0,0.37-0.04,0.63-0.11,0.78c-0.07,0.15-0.19,0.28-0.36,0.36
			c-0.16,0.09-0.36,0.13-0.6,0.13c-0.28,0-0.51-0.06-0.68-0.19S71.42,167.54,71.43,167.29z M71.76,165.87
			c0,0.31,0.06,0.54,0.18,0.68c0.12,0.14,0.28,0.21,0.46,0.21c0.18,0,0.34-0.07,0.46-0.21c0.12-0.14,0.19-0.36,0.19-0.66
			c0-0.29-0.06-0.51-0.19-0.65c-0.13-0.15-0.28-0.22-0.46-0.22c-0.18,0-0.33,0.07-0.45,0.22C71.82,165.37,71.76,165.58,71.76,165.87
			z"/>
		<path d="M74.04,164.29v-0.46h0.4v0.46H74.04z M74.04,167.09v-2.36h0.4v2.36H74.04z"/>
		<path d="M75.04,167.09v-2.36h0.36v0.33c0.17-0.26,0.42-0.39,0.75-0.39c0.14,0,0.27,0.03,0.39,0.08c0.12,0.05,0.21,0.12,0.27,0.2
			c0.06,0.08,0.1,0.18,0.12,0.3c0.02,0.07,0.02,0.2,0.02,0.39v1.45h-0.4v-1.43c0-0.16-0.02-0.29-0.05-0.37
			c-0.03-0.08-0.09-0.15-0.17-0.19c-0.08-0.05-0.17-0.07-0.28-0.07c-0.17,0-0.32,0.05-0.44,0.16c-0.12,0.11-0.19,0.31-0.19,0.62
			v1.29H75.04z"/>
	</g>
	<g>
		
			<rect x="76.83" y="174.31" fill="none" stroke="#C2C4C6" stroke-width="0.2843" stroke-miterlimit="10" width="57.3" height="5.21"/>
		<g>
			<path d="M99.47,175.85h0.32v1.41c0,0.25-0.03,0.44-0.08,0.59c-0.06,0.14-0.16,0.26-0.3,0.35c-0.15,0.09-0.34,0.14-0.57,0.14
				c-0.23,0-0.42-0.04-0.56-0.12s-0.25-0.19-0.31-0.34c-0.06-0.15-0.09-0.35-0.09-0.61v-1.41h0.32v1.41c0,0.21,0.02,0.37,0.06,0.47
				c0.04,0.1,0.11,0.18,0.2,0.23c0.1,0.05,0.21,0.08,0.35,0.08c0.24,0,0.41-0.05,0.51-0.16c0.1-0.11,0.15-0.32,0.15-0.62V175.85z"/>
			<path d="M100.18,177.76l0.3-0.05c0.02,0.12,0.06,0.21,0.14,0.27c0.08,0.06,0.18,0.09,0.32,0.09c0.14,0,0.24-0.03,0.31-0.08
				c0.07-0.05,0.1-0.12,0.1-0.2c0-0.07-0.03-0.12-0.09-0.16c-0.04-0.03-0.14-0.06-0.31-0.1c-0.22-0.05-0.37-0.1-0.46-0.14
				c-0.08-0.04-0.15-0.1-0.19-0.17c-0.04-0.07-0.07-0.15-0.07-0.24c0-0.08,0.02-0.15,0.05-0.22c0.04-0.07,0.09-0.12,0.15-0.17
				c0.05-0.04,0.11-0.06,0.19-0.09c0.08-0.02,0.17-0.04,0.26-0.04c0.14,0,0.26,0.02,0.37,0.06c0.1,0.04,0.18,0.09,0.23,0.16
				s0.08,0.16,0.1,0.27l-0.29,0.04c-0.01-0.09-0.05-0.16-0.12-0.21c-0.06-0.05-0.15-0.08-0.27-0.08c-0.14,0-0.24,0.02-0.29,0.07
				c-0.06,0.05-0.09,0.1-0.09,0.16c0,0.04,0.01,0.07,0.04,0.11s0.06,0.06,0.11,0.08c0.03,0.01,0.12,0.04,0.27,0.08
				c0.21,0.06,0.36,0.1,0.44,0.14c0.08,0.04,0.15,0.09,0.2,0.16c0.05,0.07,0.07,0.15,0.07,0.26c0,0.1-0.03,0.2-0.09,0.28
				s-0.14,0.16-0.25,0.21c-0.11,0.05-0.23,0.07-0.37,0.07c-0.23,0-0.41-0.05-0.53-0.14C100.29,178.09,100.21,177.95,100.18,177.76z"
				/>
			<path d="M103.21,177.72l0.31,0.04c-0.05,0.18-0.14,0.32-0.27,0.42c-0.13,0.1-0.3,0.15-0.51,0.15c-0.26,0-0.46-0.08-0.62-0.24
				c-0.15-0.16-0.23-0.38-0.23-0.67c0-0.3,0.08-0.53,0.23-0.69s0.35-0.25,0.6-0.25c0.24,0,0.43,0.08,0.58,0.24
				c0.15,0.16,0.23,0.39,0.23,0.68c0,0.02,0,0.04,0,0.08h-1.32c0.01,0.19,0.07,0.34,0.17,0.45c0.1,0.1,0.22,0.15,0.37,0.15
				c0.11,0,0.2-0.03,0.28-0.09C103.11,177.94,103.17,177.85,103.21,177.72z M102.23,177.23h0.99c-0.01-0.15-0.05-0.26-0.11-0.33
				c-0.1-0.12-0.22-0.17-0.37-0.17c-0.14,0-0.25,0.05-0.35,0.14C102.29,176.96,102.24,177.08,102.23,177.23z"/>
			<path d="M103.9,178.29v-1.77h0.27v0.27c0.07-0.13,0.13-0.21,0.19-0.25c0.06-0.04,0.12-0.06,0.19-0.06c0.1,0,0.2,0.03,0.31,0.1
				l-0.1,0.28c-0.07-0.04-0.15-0.06-0.22-0.06c-0.07,0-0.12,0.02-0.18,0.06s-0.09,0.09-0.11,0.16c-0.03,0.11-0.05,0.22-0.05,0.35
				v0.93H103.9z"/>
			<path d="M105.04,178.29v-1.77h0.27v0.25c0.13-0.19,0.32-0.29,0.56-0.29c0.11,0,0.2,0.02,0.29,0.06c0.09,0.04,0.16,0.09,0.2,0.15
				c0.04,0.06,0.08,0.13,0.09,0.22c0.01,0.05,0.02,0.15,0.02,0.29v1.09h-0.3v-1.08c0-0.12-0.01-0.21-0.04-0.27s-0.06-0.11-0.12-0.14
				c-0.06-0.04-0.13-0.05-0.21-0.05c-0.13,0-0.24,0.04-0.33,0.12c-0.09,0.08-0.14,0.24-0.14,0.46v0.96H105.04z"/>
			<path d="M108.09,178.07c-0.11,0.09-0.22,0.16-0.32,0.2s-0.21,0.06-0.33,0.06c-0.19,0-0.34-0.05-0.45-0.14
				c-0.1-0.1-0.16-0.22-0.16-0.37c0-0.09,0.02-0.16,0.06-0.24c0.04-0.07,0.09-0.13,0.15-0.17c0.06-0.04,0.14-0.08,0.22-0.1
				c0.06-0.02,0.15-0.03,0.27-0.04c0.24-0.03,0.42-0.06,0.53-0.1c0-0.04,0-0.07,0-0.08c0-0.12-0.03-0.21-0.08-0.26
				c-0.08-0.07-0.19-0.1-0.34-0.1c-0.14,0-0.25,0.03-0.31,0.07s-0.12,0.14-0.15,0.26l-0.29-0.04c0.03-0.13,0.07-0.23,0.13-0.3
				c0.06-0.08,0.15-0.14,0.26-0.18c0.12-0.04,0.25-0.06,0.4-0.06c0.15,0,0.27,0.02,0.37,0.05c0.09,0.04,0.16,0.08,0.21,0.13
				s0.08,0.12,0.09,0.2c0.01,0.05,0.02,0.14,0.02,0.28v0.4c0,0.28,0.01,0.46,0.02,0.53c0.01,0.07,0.04,0.14,0.08,0.21h-0.31
				C108.12,178.23,108.1,178.15,108.09,178.07z M108.06,177.4c-0.11,0.04-0.27,0.08-0.49,0.11c-0.12,0.02-0.21,0.04-0.26,0.06
				c-0.05,0.02-0.09,0.05-0.12,0.1s-0.04,0.09-0.04,0.14c0,0.08,0.03,0.15,0.09,0.2c0.06,0.05,0.15,0.08,0.27,0.08
				c0.12,0,0.22-0.02,0.31-0.07s0.16-0.12,0.2-0.21c0.03-0.07,0.05-0.17,0.05-0.3V177.4z"/>
			<path d="M108.83,178.29v-1.77h0.27v0.25c0.06-0.09,0.13-0.16,0.22-0.21c0.09-0.05,0.2-0.08,0.31-0.08c0.13,0,0.24,0.03,0.32,0.08
				c0.08,0.05,0.14,0.13,0.18,0.23c0.14-0.21,0.32-0.31,0.55-0.31c0.18,0,0.31,0.05,0.4,0.15c0.09,0.1,0.14,0.25,0.14,0.45v1.21
				h-0.3v-1.11c0-0.12-0.01-0.21-0.03-0.26c-0.02-0.05-0.05-0.1-0.11-0.13c-0.05-0.03-0.11-0.05-0.18-0.05
				c-0.12,0-0.23,0.04-0.31,0.13c-0.08,0.08-0.12,0.21-0.12,0.4v1.03h-0.3v-1.15c0-0.13-0.02-0.23-0.07-0.3s-0.13-0.1-0.24-0.1
				c-0.08,0-0.16,0.02-0.23,0.07c-0.07,0.04-0.12,0.11-0.16,0.2s-0.05,0.21-0.05,0.37v0.92H108.83z"/>
			<path d="M112.88,177.72l0.31,0.04c-0.05,0.18-0.14,0.32-0.27,0.42c-0.13,0.1-0.3,0.15-0.51,0.15c-0.26,0-0.46-0.08-0.62-0.24
				c-0.15-0.16-0.23-0.38-0.23-0.67c0-0.3,0.08-0.53,0.23-0.69s0.35-0.25,0.6-0.25c0.24,0,0.43,0.08,0.58,0.24
				c0.15,0.16,0.23,0.39,0.23,0.68c0,0.02,0,0.04,0,0.08h-1.32c0.01,0.19,0.07,0.34,0.17,0.45c0.1,0.1,0.22,0.15,0.37,0.15
				c0.11,0,0.2-0.03,0.28-0.09C112.78,177.94,112.84,177.85,112.88,177.72z M111.9,177.23h0.99c-0.01-0.15-0.05-0.26-0.11-0.33
				c-0.1-0.12-0.22-0.17-0.37-0.17c-0.14,0-0.25,0.05-0.35,0.14C111.96,176.96,111.91,177.08,111.9,177.23z"/>
		</g>
	</g>
	<g>
		
			<rect x="76.83" y="182.63" fill="none" stroke="#C2C4C6" stroke-width="0.2843" stroke-miterlimit="10" width="57.3" height="5.21"/>
		<g>
			<path d="M98.25,186.6v-2.44h0.92c0.16,0,0.29,0.01,0.37,0.02c0.12,0.02,0.22,0.06,0.3,0.11c0.08,0.06,0.15,0.13,0.2,0.24
				s0.07,0.21,0.07,0.33c0,0.21-0.07,0.38-0.2,0.53c-0.13,0.14-0.37,0.22-0.72,0.22h-0.63v0.99H98.25z M98.57,185.32h0.63
				c0.21,0,0.36-0.04,0.44-0.12c0.09-0.08,0.13-0.19,0.13-0.33c0-0.1-0.03-0.19-0.08-0.26c-0.05-0.07-0.12-0.12-0.2-0.14
				c-0.05-0.02-0.15-0.02-0.3-0.02h-0.62V185.32z"/>
			<path d="M101.64,186.39c-0.11,0.09-0.22,0.16-0.32,0.2s-0.21,0.06-0.33,0.06c-0.19,0-0.34-0.05-0.45-0.14
				c-0.1-0.1-0.16-0.22-0.16-0.37c0-0.09,0.02-0.16,0.06-0.24c0.04-0.07,0.09-0.13,0.15-0.17c0.06-0.04,0.14-0.08,0.22-0.1
				c0.06-0.02,0.15-0.03,0.27-0.04c0.24-0.03,0.42-0.06,0.53-0.1c0-0.04,0-0.07,0-0.08c0-0.12-0.03-0.21-0.08-0.26
				c-0.08-0.07-0.19-0.1-0.34-0.1c-0.14,0-0.25,0.03-0.31,0.07s-0.12,0.14-0.15,0.26l-0.29-0.04c0.03-0.13,0.07-0.23,0.13-0.3
				c0.06-0.08,0.15-0.14,0.26-0.18c0.12-0.04,0.25-0.06,0.4-0.06c0.15,0,0.27,0.02,0.37,0.05c0.09,0.04,0.16,0.08,0.21,0.13
				s0.08,0.12,0.09,0.2c0.01,0.05,0.02,0.14,0.02,0.28v0.4c0,0.28,0.01,0.46,0.02,0.53c0.01,0.07,0.04,0.14,0.08,0.21h-0.31
				C101.67,186.54,101.65,186.47,101.64,186.39z M101.62,185.72c-0.11,0.04-0.27,0.08-0.49,0.11c-0.12,0.02-0.21,0.04-0.26,0.06
				c-0.05,0.02-0.09,0.05-0.12,0.1s-0.04,0.09-0.04,0.14c0,0.08,0.03,0.15,0.09,0.2c0.06,0.05,0.15,0.08,0.27,0.08
				c0.12,0,0.22-0.02,0.31-0.07s0.16-0.12,0.2-0.21c0.03-0.07,0.05-0.17,0.05-0.3V185.72z"/>
			<path d="M102.27,186.08l0.3-0.05c0.02,0.12,0.06,0.21,0.14,0.27c0.08,0.06,0.18,0.09,0.32,0.09c0.14,0,0.24-0.03,0.31-0.08
				c0.07-0.05,0.1-0.12,0.1-0.2c0-0.07-0.03-0.12-0.09-0.16c-0.04-0.03-0.14-0.06-0.31-0.1c-0.22-0.05-0.37-0.1-0.46-0.14
				c-0.08-0.04-0.15-0.1-0.19-0.17c-0.04-0.07-0.07-0.15-0.07-0.24c0-0.08,0.02-0.15,0.05-0.22c0.04-0.07,0.09-0.12,0.15-0.17
				c0.05-0.04,0.11-0.06,0.19-0.09c0.08-0.02,0.17-0.04,0.26-0.04c0.14,0,0.26,0.02,0.37,0.06c0.1,0.04,0.18,0.09,0.23,0.16
				s0.08,0.16,0.1,0.27l-0.29,0.04c-0.01-0.09-0.05-0.16-0.12-0.21c-0.06-0.05-0.15-0.08-0.27-0.08c-0.14,0-0.24,0.02-0.29,0.07
				c-0.06,0.05-0.09,0.1-0.09,0.16c0,0.04,0.01,0.07,0.04,0.11s0.06,0.06,0.11,0.08c0.03,0.01,0.12,0.04,0.27,0.08
				c0.21,0.06,0.36,0.1,0.44,0.14c0.08,0.04,0.15,0.09,0.2,0.16c0.05,0.07,0.07,0.15,0.07,0.26c0,0.1-0.03,0.2-0.09,0.28
				s-0.14,0.16-0.25,0.21c-0.11,0.05-0.23,0.07-0.37,0.07c-0.23,0-0.41-0.05-0.53-0.14C102.38,186.4,102.3,186.26,102.27,186.08z"/>
			<path d="M103.97,186.08l0.3-0.05c0.02,0.12,0.06,0.21,0.14,0.27c0.08,0.06,0.18,0.09,0.32,0.09c0.14,0,0.24-0.03,0.31-0.08
				c0.07-0.05,0.1-0.12,0.1-0.2c0-0.07-0.03-0.12-0.09-0.16c-0.04-0.03-0.14-0.06-0.31-0.1c-0.22-0.05-0.37-0.1-0.46-0.14
				c-0.08-0.04-0.15-0.1-0.19-0.17c-0.04-0.07-0.07-0.15-0.07-0.24c0-0.08,0.02-0.15,0.05-0.22c0.04-0.07,0.09-0.12,0.15-0.17
				c0.05-0.04,0.11-0.06,0.19-0.09c0.08-0.02,0.17-0.04,0.26-0.04c0.14,0,0.26,0.02,0.37,0.06c0.1,0.04,0.18,0.09,0.23,0.16
				s0.08,0.16,0.1,0.27l-0.29,0.04c-0.01-0.09-0.05-0.16-0.12-0.21c-0.06-0.05-0.15-0.08-0.27-0.08c-0.14,0-0.24,0.02-0.29,0.07
				c-0.06,0.05-0.09,0.1-0.09,0.16c0,0.04,0.01,0.07,0.04,0.11s0.06,0.06,0.11,0.08c0.03,0.01,0.12,0.04,0.27,0.08
				c0.21,0.06,0.36,0.1,0.44,0.14c0.08,0.04,0.15,0.09,0.2,0.16c0.05,0.07,0.07,0.15,0.07,0.26c0,0.1-0.03,0.2-0.09,0.28
				s-0.14,0.16-0.25,0.21c-0.11,0.05-0.23,0.07-0.37,0.07c-0.23,0-0.41-0.05-0.53-0.14C104.08,186.4,104,186.26,103.97,186.08z"/>
			<path d="M106.12,186.6l-0.54-1.77h0.31l0.28,1.02l0.1,0.38c0-0.02,0.03-0.14,0.09-0.37l0.28-1.04h0.31l0.26,1.03l0.09,0.34
				l0.1-0.34l0.3-1.02h0.29l-0.55,1.77h-0.31l-0.28-1.06l-0.07-0.3l-0.36,1.36H106.12z"/>
			<path d="M108.15,185.72c0-0.33,0.09-0.57,0.27-0.73c0.15-0.13,0.34-0.2,0.56-0.2c0.24,0,0.44,0.08,0.6,0.24
				c0.15,0.16,0.23,0.38,0.23,0.66c0,0.23-0.03,0.41-0.1,0.54c-0.07,0.13-0.17,0.23-0.3,0.3s-0.27,0.11-0.43,0.11
				c-0.25,0-0.45-0.08-0.6-0.24C108.23,186.25,108.15,186.02,108.15,185.72z M108.46,185.72c0,0.23,0.05,0.4,0.15,0.51
				c0.1,0.11,0.22,0.17,0.37,0.17c0.15,0,0.27-0.06,0.37-0.17c0.1-0.11,0.15-0.29,0.15-0.52c0-0.22-0.05-0.38-0.15-0.5
				c-0.1-0.11-0.22-0.17-0.37-0.17c-0.15,0-0.27,0.06-0.37,0.17C108.51,185.32,108.46,185.49,108.46,185.72z"/>
			<path d="M110.15,186.6v-1.77h0.27v0.27c0.07-0.13,0.13-0.21,0.19-0.25c0.06-0.04,0.12-0.06,0.19-0.06c0.1,0,0.2,0.03,0.31,0.1
				l-0.1,0.28c-0.07-0.04-0.15-0.06-0.22-0.06c-0.07,0-0.12,0.02-0.18,0.06s-0.09,0.09-0.11,0.16c-0.03,0.11-0.05,0.22-0.05,0.35
				v0.93H110.15z"/>
			<path d="M112.44,186.6v-0.22c-0.11,0.18-0.28,0.26-0.49,0.26c-0.14,0-0.27-0.04-0.39-0.12c-0.12-0.08-0.21-0.19-0.27-0.33
				c-0.06-0.14-0.1-0.3-0.1-0.48c0-0.18,0.03-0.34,0.09-0.48c0.06-0.14,0.15-0.25,0.26-0.33s0.25-0.12,0.4-0.12
				c0.11,0,0.2,0.02,0.28,0.07c0.08,0.04,0.15,0.1,0.2,0.18v-0.88h0.3v2.44H112.44z M111.49,185.72c0,0.23,0.05,0.4,0.14,0.51
				c0.1,0.11,0.21,0.17,0.34,0.17c0.13,0,0.24-0.05,0.33-0.16s0.14-0.27,0.14-0.49c0-0.24-0.05-0.42-0.14-0.53s-0.21-0.17-0.34-0.17
				c-0.13,0-0.24,0.05-0.33,0.16C111.54,185.31,111.49,185.49,111.49,185.72z"/>
		</g>
	</g>
	<g>
		<g>
			<path fill="#DE4A31" d="M93.76,198.9c-0.08,0-0.14-0.06-0.14-0.14v-6.24c0-0.08,0.06-0.14,0.14-0.14h23.44
				c0.08,0,0.14,0.06,0.14,0.14v6.24c0,0.08-0.06,0.14-0.14,0.14H93.76z"/>
			<g>
				<path fill="#952F19" d="M117.2,192.52v6.24H93.76v-6.24H117.2 M117.2,192.24H93.76c-0.16,0-0.28,0.13-0.28,0.28v6.24
					c0,0.16,0.13,0.28,0.28,0.28h23.44c0.16,0,0.28-0.13,0.28-0.28v-6.24C117.48,192.37,117.35,192.24,117.2,192.24L117.2,192.24z"
					/>
			</g>
		</g>
		<g>
			<path fill="#FFFFFF" d="M100.99,196.78v-2.44h0.32v2.15h1.2v0.29H100.99z"/>
			<path fill="#FFFFFF" d="M102.75,195.89c0-0.33,0.09-0.57,0.27-0.73c0.15-0.13,0.34-0.2,0.56-0.2c0.24,0,0.44,0.08,0.6,0.24
				c0.15,0.16,0.23,0.38,0.23,0.66c0,0.23-0.03,0.41-0.1,0.54c-0.07,0.13-0.17,0.23-0.3,0.3s-0.27,0.11-0.43,0.11
				c-0.25,0-0.45-0.08-0.6-0.24S102.75,196.19,102.75,195.89z M103.05,195.89c0,0.23,0.05,0.4,0.15,0.51
				c0.1,0.11,0.22,0.17,0.37,0.17c0.15,0,0.27-0.06,0.37-0.17c0.1-0.11,0.15-0.29,0.15-0.52c0-0.22-0.05-0.38-0.15-0.5
				c-0.1-0.11-0.22-0.17-0.37-0.17c-0.15,0-0.27,0.06-0.37,0.17C103.1,195.5,103.05,195.67,103.05,195.89z"/>
			<path fill="#FFFFFF" d="M104.7,196.93l0.29,0.04c0.01,0.09,0.05,0.16,0.1,0.2c0.07,0.06,0.18,0.08,0.3,0.08
				c0.14,0,0.25-0.03,0.32-0.08s0.13-0.13,0.15-0.23c0.02-0.06,0.02-0.19,0.02-0.38c-0.13,0.15-0.29,0.23-0.49,0.23
				c-0.24,0-0.43-0.09-0.56-0.26c-0.13-0.17-0.2-0.39-0.2-0.63c0-0.17,0.03-0.32,0.09-0.47c0.06-0.14,0.15-0.25,0.27-0.33
				c0.12-0.08,0.25-0.12,0.41-0.12c0.21,0,0.38,0.08,0.52,0.25v-0.21h0.28v1.53c0,0.28-0.03,0.47-0.08,0.59s-0.15,0.21-0.27,0.27
				s-0.27,0.1-0.45,0.1c-0.21,0-0.38-0.05-0.51-0.14C104.76,197.26,104.7,197.12,104.7,196.93z M104.95,195.86
				c0,0.23,0.05,0.4,0.14,0.51c0.09,0.11,0.21,0.16,0.35,0.16c0.14,0,0.25-0.05,0.35-0.16s0.14-0.27,0.14-0.5
				c0-0.22-0.05-0.38-0.14-0.49c-0.1-0.11-0.21-0.17-0.35-0.17c-0.13,0-0.25,0.05-0.34,0.16S104.95,195.65,104.95,195.86z"/>
			<path fill="#FFFFFF" d="M107.69,196.78v-2.44h0.32v2.44H107.69z"/>
			<path fill="#FFFFFF" d="M108.55,196.78v-1.77h0.27v0.25c0.13-0.19,0.32-0.29,0.56-0.29c0.11,0,0.2,0.02,0.29,0.06
				c0.09,0.04,0.16,0.09,0.2,0.15c0.04,0.06,0.08,0.14,0.09,0.22c0.01,0.05,0.02,0.15,0.02,0.29v1.09h-0.3v-1.08
				c0-0.12-0.01-0.21-0.04-0.27s-0.06-0.11-0.12-0.14s-0.13-0.05-0.21-0.05c-0.13,0-0.24,0.04-0.33,0.12
				c-0.09,0.08-0.14,0.24-0.14,0.46v0.97H108.55z"/>
		</g>
	</g>
</g>
<g>
	<g>
		<rect x="202.98" y="10.96" fill="#FFFFFF" width="183.09" height="103.49"/>
		<path fill="#B1B3B6" d="M385.5,11.53v102.35H203.54V11.53H385.5 M386.64,10.39h-1.14H203.54h-1.14v1.14v102.35v1.14h1.14H385.5
			h1.14v-1.14V11.53V10.39L386.64,10.39z"/>
	</g>
	<rect x="203.54" y="11.53" fill="#F1C863" width="181.96" height="19.2"/>
	
		<rect x="249.73" y="51.34" fill="none" stroke="#C2C4C6" stroke-width="0.2843" stroke-miterlimit="10" width="89.59" height="43.39"/>
	<line fill="none" stroke="#C2C4C6" stroke-width="0.2843" stroke-miterlimit="10" x1="255.19" y1="59.18" x2="333.86" y2="59.18"/>
	<g>
		<path d="M255.52,57.5v-3.26h0.43v2.87h1.6v0.38H255.52z"/>
		<path d="M257.87,56.32c0-0.44,0.12-0.76,0.36-0.97c0.2-0.17,0.45-0.26,0.74-0.26c0.32,0,0.59,0.11,0.8,0.32
			c0.21,0.21,0.31,0.51,0.31,0.88c0,0.3-0.05,0.54-0.14,0.72c-0.09,0.17-0.22,0.31-0.4,0.41c-0.17,0.1-0.36,0.14-0.57,0.14
			c-0.33,0-0.6-0.11-0.8-0.32C257.97,57.03,257.87,56.72,257.87,56.32z M258.28,56.32c0,0.3,0.07,0.53,0.2,0.68s0.3,0.23,0.5,0.23
			s0.36-0.08,0.5-0.23c0.13-0.15,0.2-0.38,0.2-0.69c0-0.29-0.07-0.51-0.2-0.66c-0.13-0.15-0.3-0.23-0.49-0.23
			c-0.2,0-0.37,0.07-0.5,0.22S258.28,56.02,258.28,56.32z"/>
		<path d="M260.47,57.7l0.39,0.06c0.02,0.12,0.06,0.21,0.14,0.26c0.1,0.07,0.23,0.11,0.41,0.11c0.19,0,0.33-0.04,0.43-0.11
			c0.1-0.07,0.17-0.18,0.2-0.31c0.02-0.08,0.03-0.25,0.03-0.51c-0.17,0.21-0.39,0.31-0.65,0.31c-0.32,0-0.58-0.12-0.75-0.35
			s-0.27-0.51-0.27-0.84c0-0.23,0.04-0.43,0.12-0.62c0.08-0.19,0.2-0.34,0.35-0.44c0.15-0.1,0.34-0.16,0.54-0.16
			c0.28,0,0.51,0.11,0.69,0.34v-0.28h0.37v2.04c0,0.37-0.04,0.63-0.11,0.78c-0.07,0.15-0.19,0.27-0.36,0.36s-0.36,0.13-0.6,0.13
			c-0.28,0-0.51-0.06-0.68-0.19C260.55,58.14,260.47,57.95,260.47,57.7z M260.8,56.28c0,0.31,0.06,0.54,0.18,0.68
			c0.12,0.14,0.28,0.21,0.46,0.21c0.18,0,0.34-0.07,0.46-0.21c0.12-0.14,0.19-0.36,0.19-0.67c0-0.29-0.06-0.51-0.19-0.65
			s-0.28-0.22-0.46-0.22c-0.18,0-0.33,0.07-0.45,0.22C260.87,55.78,260.8,56,260.8,56.28z"/>
		<path d="M263.08,54.71v-0.46h0.4v0.46H263.08z M263.08,57.5v-2.36h0.4v2.36H263.08z"/>
		<path d="M264.09,57.5v-2.36h0.36v0.34c0.17-0.26,0.42-0.39,0.75-0.39c0.14,0,0.27,0.03,0.39,0.08c0.12,0.05,0.21,0.12,0.27,0.2
			c0.06,0.08,0.1,0.18,0.12,0.3c0.01,0.07,0.02,0.2,0.02,0.39v1.45h-0.4v-1.44c0-0.16-0.02-0.28-0.05-0.37s-0.09-0.15-0.17-0.19
			c-0.08-0.05-0.17-0.07-0.28-0.07c-0.17,0-0.32,0.05-0.44,0.16c-0.12,0.11-0.19,0.31-0.19,0.62v1.29H264.09z"/>
	</g>
	<g>
		
			<rect x="265.87" y="64.73" fill="none" stroke="#C2C4C6" stroke-width="0.2843" stroke-miterlimit="10" width="57.3" height="5.21"/>
		<g>
			<path d="M288.52,66.26h0.32v1.41c0,0.25-0.03,0.44-0.08,0.58c-0.06,0.14-0.16,0.26-0.3,0.35c-0.14,0.09-0.33,0.14-0.57,0.14
				c-0.23,0-0.42-0.04-0.56-0.12c-0.15-0.08-0.25-0.19-0.31-0.34s-0.09-0.35-0.09-0.61v-1.41h0.32v1.41c0,0.21,0.02,0.37,0.06,0.47
				s0.11,0.18,0.2,0.23c0.1,0.05,0.21,0.08,0.35,0.08c0.24,0,0.41-0.05,0.51-0.16c0.1-0.11,0.15-0.31,0.15-0.62V66.26z"/>
			<path d="M289.22,68.17l0.3-0.05c0.02,0.12,0.06,0.21,0.14,0.27c0.08,0.06,0.18,0.1,0.32,0.1c0.14,0,0.24-0.03,0.31-0.08
				s0.1-0.12,0.1-0.2c0-0.07-0.03-0.12-0.09-0.16c-0.04-0.03-0.14-0.06-0.31-0.1c-0.22-0.06-0.37-0.1-0.46-0.14s-0.15-0.1-0.19-0.17
				s-0.07-0.15-0.07-0.24c0-0.08,0.02-0.15,0.05-0.22c0.04-0.07,0.08-0.12,0.15-0.17c0.05-0.03,0.11-0.06,0.19-0.09
				c0.08-0.02,0.17-0.04,0.26-0.04c0.14,0,0.26,0.02,0.37,0.06c0.11,0.04,0.18,0.09,0.23,0.16s0.08,0.16,0.1,0.27l-0.29,0.04
				c-0.01-0.09-0.05-0.16-0.12-0.21c-0.06-0.05-0.15-0.08-0.27-0.08c-0.14,0-0.24,0.02-0.29,0.07c-0.06,0.05-0.09,0.1-0.09,0.16
				c0,0.04,0.01,0.07,0.04,0.1c0.02,0.03,0.06,0.06,0.12,0.08c0.03,0.01,0.12,0.04,0.26,0.08c0.21,0.06,0.36,0.1,0.44,0.14
				c0.08,0.04,0.15,0.09,0.2,0.16s0.07,0.15,0.07,0.26c0,0.1-0.03,0.19-0.09,0.28c-0.06,0.09-0.14,0.16-0.25,0.2
				c-0.11,0.05-0.23,0.07-0.37,0.07c-0.23,0-0.41-0.05-0.53-0.14C289.33,68.5,289.25,68.36,289.22,68.17z"/>
			<path d="M292.26,68.13l0.31,0.04c-0.05,0.18-0.14,0.32-0.27,0.42c-0.13,0.1-0.3,0.15-0.51,0.15c-0.26,0-0.46-0.08-0.62-0.24
				c-0.15-0.16-0.23-0.38-0.23-0.67c0-0.3,0.08-0.53,0.23-0.69c0.15-0.16,0.35-0.25,0.6-0.25c0.24,0,0.43,0.08,0.58,0.24
				c0.15,0.16,0.22,0.39,0.22,0.68c0,0.02,0,0.04,0,0.08h-1.32c0.01,0.19,0.07,0.34,0.17,0.45c0.1,0.1,0.22,0.15,0.37,0.15
				c0.11,0,0.2-0.03,0.28-0.09C292.15,68.35,292.21,68.26,292.26,68.13z M291.27,67.65h0.99c-0.01-0.15-0.05-0.26-0.11-0.33
				c-0.1-0.12-0.22-0.17-0.37-0.17c-0.14,0-0.25,0.05-0.35,0.14S291.28,67.49,291.27,67.65z"/>
			<path d="M292.94,68.7v-1.77h0.27v0.27c0.07-0.13,0.13-0.21,0.19-0.25c0.06-0.04,0.12-0.06,0.19-0.06c0.1,0,0.2,0.03,0.31,0.1
				l-0.1,0.28c-0.07-0.04-0.15-0.07-0.22-0.07c-0.07,0-0.12,0.02-0.18,0.06c-0.05,0.04-0.09,0.09-0.11,0.16
				c-0.03,0.11-0.05,0.22-0.05,0.35v0.93H292.94z"/>
			<path d="M294.08,68.7v-1.77h0.27v0.25c0.13-0.19,0.32-0.29,0.56-0.29c0.11,0,0.21,0.02,0.29,0.06c0.09,0.04,0.16,0.09,0.2,0.15
				c0.04,0.06,0.08,0.14,0.09,0.22c0.01,0.06,0.02,0.15,0.02,0.29v1.09h-0.3v-1.08c0-0.12-0.01-0.21-0.03-0.27
				c-0.02-0.06-0.07-0.11-0.13-0.15c-0.06-0.04-0.13-0.05-0.21-0.05c-0.13,0-0.24,0.04-0.33,0.12s-0.14,0.23-0.14,0.46v0.97H294.08z
				"/>
			<path d="M297.13,68.48c-0.11,0.09-0.22,0.16-0.32,0.2c-0.1,0.04-0.21,0.06-0.33,0.06c-0.19,0-0.34-0.05-0.45-0.14
				c-0.1-0.09-0.16-0.22-0.16-0.36c0-0.09,0.02-0.17,0.06-0.24c0.04-0.07,0.09-0.13,0.15-0.17c0.06-0.04,0.14-0.08,0.22-0.1
				c0.06-0.02,0.15-0.03,0.27-0.04c0.24-0.03,0.42-0.06,0.54-0.1c0-0.04,0-0.07,0-0.08c0-0.12-0.03-0.21-0.08-0.26
				c-0.08-0.07-0.19-0.1-0.34-0.1c-0.14,0-0.25,0.02-0.31,0.07s-0.12,0.14-0.15,0.26l-0.29-0.04c0.03-0.13,0.07-0.23,0.13-0.3
				c0.06-0.08,0.15-0.14,0.26-0.18s0.25-0.06,0.4-0.06c0.15,0,0.27,0.02,0.37,0.05c0.09,0.04,0.16,0.08,0.21,0.13
				c0.04,0.05,0.08,0.12,0.09,0.2c0.01,0.05,0.01,0.14,0.01,0.28v0.4c0,0.28,0.01,0.46,0.02,0.53s0.04,0.14,0.08,0.21h-0.31
				C297.16,68.64,297.14,68.57,297.13,68.48z M297.11,67.81c-0.11,0.04-0.27,0.08-0.49,0.11c-0.12,0.02-0.21,0.04-0.26,0.06
				c-0.05,0.02-0.09,0.05-0.12,0.1c-0.03,0.04-0.04,0.09-0.04,0.14c0,0.08,0.03,0.15,0.09,0.2s0.15,0.08,0.27,0.08
				c0.12,0,0.22-0.03,0.31-0.08c0.09-0.05,0.16-0.12,0.2-0.21c0.03-0.07,0.05-0.17,0.05-0.3V67.81z"/>
			<path d="M297.88,68.7v-1.77h0.27v0.25c0.06-0.09,0.13-0.16,0.22-0.21c0.09-0.05,0.2-0.08,0.31-0.08c0.13,0,0.24,0.03,0.32,0.08
				c0.08,0.05,0.14,0.13,0.18,0.23c0.14-0.21,0.32-0.31,0.55-0.31c0.18,0,0.31,0.05,0.41,0.15s0.14,0.25,0.14,0.45v1.21h-0.3v-1.11
				c0-0.12-0.01-0.21-0.03-0.26s-0.05-0.1-0.11-0.13c-0.05-0.03-0.11-0.05-0.18-0.05c-0.12,0-0.23,0.04-0.31,0.12
				c-0.08,0.08-0.12,0.22-0.12,0.4v1.03h-0.3v-1.15c0-0.13-0.02-0.23-0.07-0.3c-0.05-0.07-0.13-0.1-0.24-0.1
				c-0.08,0-0.16,0.02-0.23,0.07c-0.07,0.04-0.12,0.11-0.16,0.19s-0.05,0.21-0.05,0.37v0.92H297.88z"/>
			<path d="M301.93,68.13l0.31,0.04c-0.05,0.18-0.14,0.32-0.27,0.42c-0.13,0.1-0.3,0.15-0.51,0.15c-0.26,0-0.46-0.08-0.62-0.24
				c-0.15-0.16-0.23-0.38-0.23-0.67c0-0.3,0.08-0.53,0.23-0.69c0.15-0.16,0.35-0.25,0.6-0.25c0.24,0,0.43,0.08,0.58,0.24
				c0.15,0.16,0.22,0.39,0.22,0.68c0,0.02,0,0.04,0,0.08h-1.32c0.01,0.19,0.07,0.34,0.17,0.45c0.1,0.1,0.22,0.15,0.37,0.15
				c0.11,0,0.2-0.03,0.28-0.09C301.82,68.35,301.88,68.26,301.93,68.13z M300.94,67.65h0.99c-0.01-0.15-0.05-0.26-0.11-0.33
				c-0.1-0.12-0.22-0.17-0.37-0.17c-0.14,0-0.25,0.05-0.35,0.14S300.95,67.49,300.94,67.65z"/>
		</g>
	</g>
	<g>
		
			<rect x="265.87" y="73.04" fill="none" stroke="#C2C4C6" stroke-width="0.2843" stroke-miterlimit="10" width="57.3" height="5.21"/>
		<g>
			<path d="M287.3,77.02v-2.44h0.92c0.16,0,0.29,0.01,0.37,0.02c0.12,0.02,0.22,0.06,0.3,0.11s0.15,0.13,0.2,0.24
				c0.05,0.1,0.07,0.21,0.07,0.33c0,0.21-0.07,0.38-0.2,0.53c-0.13,0.14-0.37,0.22-0.72,0.22h-0.63v0.99H287.3z M287.62,75.74h0.63
				c0.21,0,0.36-0.04,0.44-0.12c0.09-0.08,0.13-0.19,0.13-0.33c0-0.1-0.03-0.19-0.08-0.26s-0.12-0.12-0.2-0.14
				c-0.05-0.01-0.16-0.02-0.3-0.02h-0.63V75.74z"/>
			<path d="M290.69,76.8c-0.11,0.09-0.22,0.16-0.32,0.2c-0.1,0.04-0.21,0.06-0.33,0.06c-0.19,0-0.34-0.05-0.45-0.14
				c-0.1-0.09-0.16-0.22-0.16-0.36c0-0.09,0.02-0.17,0.06-0.24c0.04-0.07,0.09-0.13,0.15-0.17c0.06-0.04,0.14-0.08,0.22-0.1
				c0.06-0.02,0.15-0.03,0.27-0.04c0.24-0.03,0.42-0.06,0.54-0.1c0-0.04,0-0.07,0-0.08c0-0.12-0.03-0.21-0.08-0.26
				c-0.08-0.07-0.19-0.1-0.34-0.1c-0.14,0-0.25,0.02-0.31,0.07s-0.12,0.14-0.15,0.26l-0.29-0.04c0.03-0.13,0.07-0.23,0.13-0.3
				c0.06-0.08,0.15-0.14,0.26-0.18s0.25-0.06,0.4-0.06c0.15,0,0.27,0.02,0.37,0.05c0.09,0.04,0.16,0.08,0.21,0.13
				c0.04,0.05,0.08,0.12,0.09,0.2c0.01,0.05,0.01,0.14,0.01,0.28v0.4c0,0.28,0.01,0.46,0.02,0.53s0.04,0.14,0.08,0.21h-0.31
				C290.72,76.95,290.7,76.88,290.69,76.8z M290.66,76.13c-0.11,0.04-0.27,0.08-0.49,0.11c-0.12,0.02-0.21,0.04-0.26,0.06
				c-0.05,0.02-0.09,0.05-0.12,0.1c-0.03,0.04-0.04,0.09-0.04,0.14c0,0.08,0.03,0.15,0.09,0.2s0.15,0.08,0.27,0.08
				c0.12,0,0.22-0.03,0.31-0.08c0.09-0.05,0.16-0.12,0.2-0.21c0.03-0.07,0.05-0.17,0.05-0.3V76.13z"/>
			<path d="M291.31,76.49l0.3-0.05c0.02,0.12,0.06,0.21,0.14,0.27c0.08,0.06,0.18,0.1,0.32,0.1c0.14,0,0.24-0.03,0.31-0.08
				s0.1-0.12,0.1-0.2c0-0.07-0.03-0.12-0.09-0.16c-0.04-0.03-0.14-0.06-0.31-0.1c-0.22-0.06-0.37-0.1-0.46-0.14s-0.15-0.1-0.19-0.17
				s-0.07-0.15-0.07-0.24c0-0.08,0.02-0.15,0.05-0.22c0.04-0.07,0.08-0.12,0.15-0.17c0.05-0.03,0.11-0.06,0.19-0.09
				c0.08-0.02,0.17-0.04,0.26-0.04c0.14,0,0.26,0.02,0.37,0.06c0.11,0.04,0.18,0.09,0.23,0.16s0.08,0.16,0.1,0.27l-0.29,0.04
				c-0.01-0.09-0.05-0.16-0.12-0.21c-0.06-0.05-0.15-0.08-0.27-0.08c-0.14,0-0.24,0.02-0.29,0.07c-0.06,0.05-0.09,0.1-0.09,0.16
				c0,0.04,0.01,0.07,0.04,0.1c0.02,0.03,0.06,0.06,0.12,0.08c0.03,0.01,0.12,0.04,0.26,0.08c0.21,0.06,0.36,0.1,0.44,0.14
				c0.08,0.04,0.15,0.09,0.2,0.16s0.07,0.15,0.07,0.26c0,0.1-0.03,0.19-0.09,0.28c-0.06,0.09-0.14,0.16-0.25,0.2
				c-0.11,0.05-0.23,0.07-0.37,0.07c-0.23,0-0.41-0.05-0.53-0.14C291.42,76.82,291.34,76.68,291.31,76.49z"/>
			<path d="M293.02,76.49l0.3-0.05c0.02,0.12,0.06,0.21,0.14,0.27c0.08,0.06,0.18,0.1,0.32,0.1c0.14,0,0.24-0.03,0.31-0.08
				s0.1-0.12,0.1-0.2c0-0.07-0.03-0.12-0.09-0.16c-0.04-0.03-0.14-0.06-0.31-0.1c-0.22-0.06-0.37-0.1-0.46-0.14s-0.15-0.1-0.19-0.17
				s-0.07-0.15-0.07-0.24c0-0.08,0.02-0.15,0.05-0.22c0.04-0.07,0.08-0.12,0.15-0.17c0.05-0.03,0.11-0.06,0.19-0.09
				c0.08-0.02,0.17-0.04,0.26-0.04c0.14,0,0.26,0.02,0.37,0.06c0.11,0.04,0.18,0.09,0.23,0.16s0.08,0.16,0.1,0.27l-0.29,0.04
				c-0.01-0.09-0.05-0.16-0.12-0.21c-0.06-0.05-0.15-0.08-0.27-0.08c-0.14,0-0.24,0.02-0.29,0.07c-0.06,0.05-0.09,0.1-0.09,0.16
				c0,0.04,0.01,0.07,0.04,0.1c0.02,0.03,0.06,0.06,0.12,0.08c0.03,0.01,0.12,0.04,0.26,0.08c0.21,0.06,0.36,0.1,0.44,0.14
				c0.08,0.04,0.15,0.09,0.2,0.16s0.07,0.15,0.07,0.26c0,0.1-0.03,0.19-0.09,0.28c-0.06,0.09-0.14,0.16-0.25,0.2
				c-0.11,0.05-0.23,0.07-0.37,0.07c-0.23,0-0.41-0.05-0.53-0.14C293.13,76.82,293.05,76.68,293.02,76.49z"/>
			<path d="M295.17,77.02l-0.54-1.77h0.31l0.28,1.02l0.1,0.38c0-0.02,0.04-0.14,0.09-0.36l0.28-1.04H296l0.26,1.03l0.09,0.34
				l0.1-0.34l0.3-1.02h0.29l-0.55,1.77h-0.31l-0.28-1.06l-0.07-0.3l-0.36,1.36H295.17z"/>
			<path d="M297.19,76.13c0-0.33,0.09-0.57,0.27-0.73c0.15-0.13,0.34-0.2,0.56-0.2c0.24,0,0.44,0.08,0.6,0.24
				c0.15,0.16,0.23,0.38,0.23,0.66c0,0.23-0.03,0.41-0.1,0.54c-0.07,0.13-0.17,0.23-0.3,0.3s-0.27,0.11-0.43,0.11
				c-0.25,0-0.45-0.08-0.6-0.24C297.27,76.66,297.19,76.43,297.19,76.13z M297.5,76.13c0,0.23,0.05,0.4,0.15,0.51
				c0.1,0.11,0.22,0.17,0.37,0.17c0.15,0,0.27-0.06,0.37-0.17s0.15-0.29,0.15-0.52c0-0.22-0.05-0.38-0.15-0.5
				c-0.1-0.11-0.22-0.17-0.37-0.17c-0.15,0-0.27,0.06-0.37,0.17C297.55,75.74,297.5,75.91,297.5,76.13z"/>
			<path d="M299.2,77.02v-1.77h0.27v0.27c0.07-0.13,0.13-0.21,0.19-0.25c0.06-0.04,0.12-0.06,0.19-0.06c0.1,0,0.2,0.03,0.31,0.1
				l-0.1,0.28c-0.07-0.04-0.15-0.07-0.22-0.07c-0.07,0-0.12,0.02-0.18,0.06c-0.05,0.04-0.09,0.09-0.11,0.16
				c-0.03,0.11-0.05,0.22-0.05,0.35v0.93H299.2z"/>
			<path d="M301.49,77.02v-0.22c-0.11,0.18-0.28,0.26-0.5,0.26c-0.14,0-0.27-0.04-0.39-0.12s-0.21-0.19-0.28-0.33
				c-0.06-0.14-0.1-0.3-0.1-0.48c0-0.18,0.03-0.34,0.09-0.48c0.06-0.14,0.15-0.25,0.26-0.33s0.25-0.11,0.39-0.11
				c0.11,0,0.2,0.02,0.29,0.07s0.15,0.1,0.2,0.18v-0.88h0.3v2.44H301.49z M300.54,76.13c0,0.23,0.05,0.4,0.14,0.51
				c0.09,0.11,0.21,0.17,0.34,0.17c0.13,0,0.24-0.05,0.33-0.16c0.09-0.11,0.14-0.27,0.14-0.49c0-0.24-0.05-0.42-0.14-0.53
				c-0.09-0.11-0.21-0.17-0.34-0.17c-0.13,0-0.24,0.05-0.33,0.16C300.58,75.73,300.54,75.9,300.54,76.13z"/>
		</g>
	</g>
	<g>
		<g>
			<path fill="#F1C863" d="M282.8,89.32c-0.08,0-0.14-0.06-0.14-0.14v-6.24c0-0.08,0.06-0.14,0.14-0.14h23.44
				c0.08,0,0.14,0.06,0.14,0.14v6.24c0,0.08-0.06,0.14-0.14,0.14H282.8z"/>
			<g>
				<path fill="#957E3D" d="M306.24,82.93v6.24H282.8v-6.24H306.24 M306.24,82.65H282.8c-0.16,0-0.28,0.13-0.28,0.28v6.24
					c0,0.16,0.13,0.29,0.28,0.29h23.44c0.16,0,0.28-0.13,0.28-0.29v-6.24C306.52,82.78,306.4,82.65,306.24,82.65L306.24,82.65z"/>
			</g>
		</g>
		<g>
			<path fill="#FFFFFF" d="M290.03,87.19v-2.44h0.32v2.15h1.2v0.29H290.03z"/>
			<path fill="#FFFFFF" d="M291.79,86.31c0-0.33,0.09-0.57,0.27-0.73c0.15-0.13,0.34-0.2,0.56-0.2c0.24,0,0.44,0.08,0.6,0.24
				c0.15,0.16,0.23,0.38,0.23,0.66c0,0.23-0.03,0.41-0.1,0.54c-0.07,0.13-0.17,0.23-0.3,0.3s-0.27,0.11-0.43,0.11
				c-0.25,0-0.45-0.08-0.6-0.24C291.87,86.83,291.79,86.6,291.79,86.31z M292.1,86.31c0,0.23,0.05,0.4,0.15,0.51
				c0.1,0.11,0.22,0.17,0.37,0.17c0.15,0,0.27-0.06,0.37-0.17s0.15-0.29,0.15-0.52c0-0.22-0.05-0.38-0.15-0.5
				c-0.1-0.11-0.22-0.17-0.37-0.17c-0.15,0-0.27,0.06-0.37,0.17C292.15,85.91,292.1,86.08,292.1,86.31z"/>
			<path fill="#FFFFFF" d="M293.74,87.34l0.29,0.04c0.01,0.09,0.05,0.16,0.1,0.2c0.07,0.06,0.18,0.08,0.3,0.08
				c0.14,0,0.25-0.03,0.32-0.08c0.08-0.06,0.13-0.13,0.15-0.23c0.02-0.06,0.02-0.19,0.02-0.38c-0.13,0.15-0.29,0.23-0.49,0.23
				c-0.24,0-0.43-0.09-0.57-0.26c-0.13-0.18-0.2-0.39-0.2-0.63c0-0.17,0.03-0.32,0.09-0.47c0.06-0.14,0.15-0.25,0.27-0.33
				c0.12-0.08,0.25-0.12,0.41-0.12c0.21,0,0.38,0.08,0.52,0.25v-0.21h0.28v1.53c0,0.28-0.03,0.47-0.08,0.59
				c-0.06,0.11-0.14,0.21-0.27,0.27c-0.12,0.07-0.27,0.1-0.45,0.1c-0.21,0-0.38-0.05-0.51-0.14
				C293.8,87.67,293.74,87.53,293.74,87.34z M293.99,86.27c0,0.23,0.05,0.4,0.14,0.51c0.09,0.11,0.21,0.16,0.35,0.16
				c0.14,0,0.25-0.05,0.35-0.16c0.09-0.11,0.14-0.27,0.14-0.5c0-0.22-0.05-0.38-0.14-0.49s-0.21-0.17-0.35-0.17
				c-0.13,0-0.25,0.05-0.34,0.16C294.04,85.9,293.99,86.06,293.99,86.27z"/>
			<path fill="#FFFFFF" d="M296.74,87.19v-2.44h0.32v2.44H296.74z"/>
			<path fill="#FFFFFF" d="M297.59,87.19v-1.77h0.27v0.25c0.13-0.19,0.32-0.29,0.56-0.29c0.11,0,0.21,0.02,0.29,0.06
				c0.09,0.04,0.16,0.09,0.2,0.15c0.04,0.06,0.08,0.14,0.09,0.22c0.01,0.06,0.02,0.15,0.02,0.29v1.09h-0.3v-1.08
				c0-0.12-0.01-0.21-0.03-0.27c-0.02-0.06-0.07-0.11-0.13-0.15c-0.06-0.04-0.13-0.05-0.21-0.05c-0.13,0-0.24,0.04-0.33,0.12
				s-0.14,0.23-0.14,0.46v0.97H297.59z"/>
		</g>
	</g>
</g>
</svg>
